<svg width="41" height="41" viewBox="0 0 41 41" fill="none" xmlns="http://www.w3.org/2000/svg">
<circle cx="20.9375" cy="20.0742" r="19.85" fill="white" stroke="#5A5A5A" stroke-width="0.3"/>
<g clip-path="url(#clip0_358_17236)">
<path d="M27.3889 24.5347C27.1471 25.0933 26.8609 25.6074 26.5292 26.0803C26.0772 26.7247 25.7071 27.1708 25.4219 27.4186C24.9797 27.8252 24.506 28.0334 23.9987 28.0453C23.6345 28.0453 23.1953 27.9417 22.6841 27.7315C22.1711 27.5222 21.6998 27.4186 21.2688 27.4186C20.8167 27.4186 20.3319 27.5222 19.8134 27.7315C19.294 27.9417 18.8757 28.0512 18.5558 28.0621C18.0693 28.0827 17.5844 27.8686 17.1004 27.4186C16.7915 27.1491 16.4051 26.6871 15.9422 26.0329C15.4456 25.3341 15.0373 24.5238 14.7174 23.6C14.3749 22.6022 14.2031 21.636 14.2031 20.7005C14.2031 19.629 14.4347 18.7048 14.8984 17.9303C15.2629 17.3083 15.7478 16.8175 16.3547 16.4573C16.9616 16.0971 17.6173 15.9135 18.3235 15.9017C18.7099 15.9017 19.2166 16.0213 19.8463 16.2562C20.4742 16.4918 20.8773 16.6114 21.0541 16.6114C21.1862 16.6114 21.6341 16.4716 22.3934 16.193C23.1114 15.9346 23.7174 15.8276 24.2138 15.8698C25.5591 15.9783 26.5697 16.5086 27.2418 17.464C26.0387 18.193 25.4436 19.214 25.4554 20.5238C25.4663 21.544 25.8364 22.393 26.5638 23.0671C26.8934 23.3799 27.2616 23.6217 27.6711 23.7935C27.5824 24.051 27.4885 24.2978 27.3889 24.5347ZM24.3037 12.3941C24.3037 13.1937 24.0115 13.9404 23.4292 14.6314C22.7265 15.453 21.8765 15.9277 20.9548 15.8528C20.9431 15.7569 20.9362 15.6559 20.9362 15.5498C20.9362 14.7821 21.2704 13.9606 21.8639 13.2889C22.1602 12.9488 22.537 12.666 22.994 12.4404C23.4499 12.2182 23.8812 12.0953 24.2869 12.0742C24.2987 12.1811 24.3037 12.288 24.3037 12.3941V12.3941Z" fill="#0E0E0E"/>
</g>
<defs>
<clipPath id="clip0_358_17236">
<rect width="16" height="16" fill="white" transform="translate(12.9375 12.0742)"/>
</clipPath>
</defs>
</svg>
