<svg width="309" height="251" viewBox="0 0 309 251" fill="none" xmlns="http://www.w3.org/2000/svg">
<path d="M274.584 81.2544C270.656 79.2585 268.872 80.9205 267.414 79.2585C265.956 77.5965 271.342 73.2708 260.625 68.9451C260.625 68.9451 259.916 59.6334 245.272 59.2995C230.628 58.9656 234.612 68.6186 230.628 70.941C226.645 73.2634 225.625 69.6129 221.697 71.9427C217.769 74.2725 219.554 78.9246 216.343 79.5924C213.132 80.2602 208.845 76.6245 204.918 78.9246C200.99 81.2247 200.99 83.2503 199.197 83.2503C197.404 83.2503 193.843 81.9222 191.7 83.2503C189.556 84.5784 187.055 86.2182 187.055 86.2182H277.445C277.445 86.2182 278.52 83.2503 274.584 81.2544Z" fill="#D8B65A"/>
<path opacity="0.5" d="M274.584 81.2544C270.656 79.2585 268.872 80.9205 267.414 79.2585C265.956 77.5965 271.342 73.2708 260.625 68.9451C260.625 68.9451 259.916 59.6334 245.272 59.2995C230.628 58.9656 234.612 68.6186 230.628 70.941C226.645 73.2634 225.625 69.6129 221.697 71.9427C217.769 74.2725 219.554 78.9246 216.343 79.5924C213.132 80.2602 208.845 76.6245 204.918 78.9246C200.99 81.2247 200.99 83.2503 199.197 83.2503C197.404 83.2503 193.843 81.9222 191.7 83.2503C189.556 84.5784 187.055 86.2182 187.055 86.2182H277.445C277.445 86.2182 278.52 83.2503 274.584 81.2544Z" fill="#D8B65A"/>
<path d="M137.783 38.7108C135.456 37.5311 134.397 38.5179 133.552 37.5311C132.708 36.5443 135.879 33.9845 129.569 31.4172C129.569 31.4172 129.146 25.8969 120.47 25.704C111.793 25.5111 114.096 31.2243 111.793 32.6044C109.491 33.9844 108.829 31.8179 106.495 33.1905C104.161 34.5632 105.228 37.3308 103.308 37.7314C101.388 38.1321 98.8622 35.9507 96.5358 37.3308C94.2093 38.7108 94.2093 39.898 93.1496 39.898C92.09 39.898 89.9627 39.1041 88.7038 39.898C87.445 40.6919 85.9551 41.6713 85.9551 41.6713H139.48C139.48 41.6713 140.117 39.9203 137.783 38.7108Z" fill="#D8B65A"/>
<path opacity="0.5" d="M137.783 38.7108C135.456 37.5311 134.397 38.5179 133.552 37.5311C132.708 36.5443 135.879 33.9845 129.569 31.4172C129.569 31.4172 129.146 25.8969 120.47 25.704C111.793 25.5111 114.096 31.2243 111.793 32.6044C109.491 33.9844 108.829 31.8179 106.495 33.1905C104.161 34.5632 105.228 37.3308 103.308 37.7314C101.388 38.1321 98.8622 35.9507 96.5358 37.3308C94.2093 38.7108 94.2093 39.898 93.1496 39.898C92.09 39.898 89.9627 39.1041 88.7038 39.898C87.445 40.6919 85.9551 41.6713 85.9551 41.6713H139.48C139.48 41.6713 140.117 39.9203 137.783 38.7108Z" fill="#D8B65A"/>
<path d="M170.425 203.081C163.732 199.676 160.689 202.51 158.251 199.676C155.813 196.841 164.943 189.481 146.69 182.113C146.69 182.113 145.471 166.242 120.525 165.678C95.5794 165.114 102.264 181.542 95.5714 185.511C88.8788 189.481 87.0543 183.241 80.3617 187.21C73.6691 191.18 76.7047 199.082 71.2311 200.247C65.7575 201.412 58.4833 195.142 51.7588 199.112C45.0344 203.081 45.0662 206.479 42.0227 206.479C38.9792 206.479 32.8921 204.209 29.2749 206.479C25.6577 208.75 21.3633 211.577 21.3633 211.577H175.293C175.293 211.577 177.118 206.479 170.425 203.081Z" fill="#D8B65A"/>
<path opacity="0.5" d="M170.425 203.081C163.732 199.676 160.689 202.51 158.251 199.676C155.813 196.841 164.943 189.481 146.69 182.113C146.69 182.113 145.471 166.242 120.525 165.678C95.5794 165.114 102.264 181.542 95.5714 185.511C88.8788 189.481 87.0543 183.241 80.3617 187.21C73.6691 191.18 76.7047 199.082 71.2311 200.247C65.7575 201.412 58.4833 195.142 51.7588 199.112C45.0344 203.081 45.0662 206.479 42.0227 206.479C38.9792 206.479 32.8921 204.209 29.2749 206.479C25.6577 208.75 21.3633 211.577 21.3633 211.577H175.293C175.293 211.577 177.118 206.479 170.425 203.081Z" fill="#D8B65A"/>
<g opacity="0.5">
<path opacity="0.5" d="M274.584 81.2564C270.656 79.2605 268.872 80.9225 267.414 79.2605C265.956 77.5985 271.342 73.2728 260.625 68.9471C260.625 68.9471 259.916 59.6353 245.272 59.3014C230.628 58.9675 234.612 68.6206 230.628 70.943C226.645 73.2654 225.625 69.6149 221.697 71.9447C217.769 74.2745 219.554 78.9266 216.343 79.5944C213.132 80.2622 208.845 76.6265 204.918 78.9266C200.99 81.2267 200.99 83.2523 199.197 83.2523C197.404 83.2523 193.843 81.9242 191.7 83.2523C189.556 84.5805 187.055 86.2202 187.055 86.2202H277.445C277.445 86.2202 278.52 83.2523 274.584 81.2564Z" fill="white"/>
<path opacity="0.5" d="M274.584 81.2564C270.656 79.2605 268.872 80.9225 267.414 79.2605C265.956 77.5985 271.342 73.2728 260.625 68.9471C260.625 68.9471 259.916 59.6353 245.272 59.3014C230.628 58.9675 234.612 68.6206 230.628 70.943C226.645 73.2654 225.625 69.6149 221.697 71.9447C217.769 74.2745 219.554 78.9266 216.343 79.5944C213.132 80.2622 208.845 76.6265 204.918 78.9266C200.99 81.2267 200.99 83.2523 199.197 83.2523C197.404 83.2523 193.843 81.9242 191.7 83.2523C189.556 84.5805 187.055 86.2202 187.055 86.2202H277.445C277.445 86.2202 278.52 83.2523 274.584 81.2564Z" fill="white"/>
</g>
<g opacity="0.5">
<path opacity="0.5" d="M137.781 38.7108C135.454 37.531 134.395 38.5179 133.55 37.531C132.706 36.5442 135.877 33.9844 129.567 31.4172C129.567 31.4172 129.144 25.8969 120.468 25.704C111.791 25.5111 114.094 31.2243 111.791 32.6043C109.489 33.9844 108.827 31.8179 106.493 33.1905C104.159 34.5632 105.226 37.3307 103.306 37.7314C101.386 38.1321 98.8603 35.9506 96.5338 37.3307C94.2073 38.7108 94.2073 39.8979 93.1477 39.8979C92.088 39.8979 89.9607 39.104 88.7019 39.8979C87.443 40.6919 85.9531 41.6713 85.9531 41.6713H139.478C139.478 41.6713 140.115 39.9202 137.781 38.7108Z" fill="white"/>
<path opacity="0.5" d="M137.781 38.7108C135.454 37.531 134.395 38.5179 133.55 37.531C132.706 36.5442 135.877 33.9844 129.567 31.4172C129.567 31.4172 129.144 25.8969 120.468 25.704C111.791 25.5111 114.094 31.2243 111.791 32.6043C109.489 33.9844 108.827 31.8179 106.493 33.1905C104.159 34.5632 105.226 37.3307 103.306 37.7314C101.386 38.1321 98.8603 35.9506 96.5338 37.3307C94.2073 38.7108 94.2073 39.8979 93.1477 39.8979C92.088 39.8979 89.9607 39.104 88.7019 39.8979C87.443 40.6919 85.9531 41.6713 85.9531 41.6713H139.478C139.478 41.6713 140.115 39.9202 137.781 38.7108Z" fill="white"/>
</g>
<g opacity="0.5">
<path opacity="0.5" d="M170.425 203.081C163.732 199.675 160.689 202.51 158.251 199.675C155.813 196.841 164.943 189.481 146.69 182.113C146.69 182.113 145.471 166.242 120.525 165.678C95.5794 165.114 102.264 181.542 95.5714 185.511C88.8788 189.481 87.0543 183.241 80.3617 187.21C73.6691 191.18 76.7047 199.082 71.2311 200.247C65.7575 201.412 58.4833 195.142 51.7588 199.111C45.0344 203.081 45.0662 206.479 42.0227 206.479C38.9792 206.479 32.8921 204.209 29.2749 206.479C25.6577 208.75 21.3633 211.577 21.3633 211.577H175.293C175.293 211.577 177.118 206.479 170.425 203.081Z" fill="white"/>
<path opacity="0.5" d="M170.425 203.081C163.732 199.675 160.689 202.51 158.251 199.675C155.813 196.841 164.943 189.481 146.69 182.113C146.69 182.113 145.471 166.242 120.525 165.678C95.5794 165.114 102.264 181.542 95.5714 185.511C88.8788 189.481 87.0543 183.241 80.3617 187.21C73.6691 191.18 76.7047 199.082 71.2311 200.247C65.7575 201.412 58.4833 195.142 51.7588 199.111C45.0344 203.081 45.0662 206.479 42.0227 206.479C38.9792 206.479 32.8921 204.209 29.2749 206.479C25.6577 208.75 21.3633 211.577 21.3633 211.577H175.293C175.293 211.577 177.118 206.479 170.425 203.081Z" fill="white"/>
</g>
<path d="M57.9489 178.915C57.9489 178.915 54.013 175.702 49.9416 174.604C45.8703 173.506 41.1775 173.483 37.1221 172.452C33.0667 171.421 30.6447 170.553 30.6447 170.553L30.4375 173.966L57.7815 180.844L76.4889 176.021L78.3533 172.482C76.3149 173.365 74.177 174.035 71.9794 174.478C67.9081 175.375 63.3507 175.375 60.8251 176.281C58.2994 177.186 57.9489 178.915 57.9489 178.915Z" fill="white" stroke="#263238" stroke-linecap="round" stroke-linejoin="round"/>
<path d="M30.0549 171.324C35.4 172.847 40.8789 173.927 46.4279 174.552C50.6015 175.079 54.5644 176.58 57.9487 178.915C60.7017 177.276 63.8709 176.344 67.1351 176.214C71.0613 175.937 74.9346 175.201 78.6639 174.025L77.4927 176.251L57.399 179.916L29.6406 173.164L30.0549 171.324Z" fill="white" stroke="#263238" stroke-linecap="round" stroke-linejoin="round"/>
<path d="M29.2997 172.096C33.5466 173.611 37.9967 174.578 42.5255 174.967C49.9192 175.487 57.7432 178.914 57.7432 178.914C60.7694 177.493 64.0919 176.703 67.4793 176.599C71.2809 176.569 75.0633 176.093 78.7372 175.182C78.6227 175.538 78.5941 175.912 78.6533 176.279C78.7126 176.646 78.8582 176.996 79.0798 177.304L57.6715 181.548L29.1562 173.832L29.2997 172.096Z" fill="white" stroke="#263238" stroke-linecap="round" stroke-linejoin="round"/>
<path d="M28.9481 173.514L56.7781 180.006V180.896L59.1206 180.956V179.932L79.7003 176.905C79.7003 176.905 80.6006 176.712 79.8357 177.646C79.0709 178.581 65.8211 189.355 65.8211 189.355L51.1133 190.765L28.8047 186.201L28.9481 173.514Z" fill="#D8B65A"/>
<path opacity="0.3" d="M56.778 180.911V180.006L28.9479 173.514L28.8125 186.246L51.1132 190.809L51.5116 190.772L57.3994 180.926L56.778 180.911Z" fill="black"/>
<path d="M28.9481 173.514L56.7781 180.006V180.896L59.1206 180.956V179.932L79.7003 176.905C79.7003 176.905 80.6006 176.712 79.8357 177.646C79.0709 178.581 65.8211 189.355 65.8211 189.355L51.1133 190.765L28.8047 186.201L28.9481 173.514Z" stroke="#263238" stroke-linecap="round" stroke-linejoin="round"/>
<path d="M56.7797 180.91L50.6289 190.808L51.8081 190.875L59.1221 180.97L56.7797 180.91Z" fill="#D8B65A" stroke="#263238" stroke-linecap="round" stroke-linejoin="round"/>
<path d="M55.79 241.254C55.79 241.254 54.4515 243.866 52.6668 245.061C50.8821 246.255 48.6035 246.819 46.8028 247.969C45.8248 248.585 44.8882 249.257 43.9983 249.98L43.2812 247.709L55.3439 239.971L65.3429 241.099L66.8886 243.265C65.7715 242.913 64.6083 242.703 63.4307 242.642C61.2875 242.501 59.0646 243.02 57.6544 242.701C57.2481 242.603 56.8701 242.423 56.5477 242.173C56.2253 241.923 55.9665 241.609 55.79 241.254Z" fill="white" stroke="#263238" stroke-linecap="round" stroke-linejoin="round"/>
<path d="M43.5612 249.529C45.8528 247.924 48.3366 246.572 50.9629 245.5C52.9932 244.568 54.6756 243.09 55.7911 241.256C57.3186 241.997 59.063 242.257 60.7627 241.998C62.7637 241.741 64.7966 241.796 66.7781 242.161L65.7981 240.773L55.3449 240.625L43.0273 248.319L43.5612 249.529Z" fill="white" stroke="#263238" stroke-linecap="round" stroke-linejoin="round"/>
<path d="M43.0504 249.098C44.7941 247.634 46.8041 246.47 48.9861 245.663C52.4917 244.475 55.6946 241.278 55.6946 241.278C57.3363 241.875 59.1249 242.032 60.8575 241.73C62.7388 241.32 64.6816 241.212 66.602 241.411C66.3608 240.951 66.2854 240.431 66.3869 239.927L55.1847 239.512L42.668 247.948L43.0504 249.098Z" fill="white" stroke="#263238" stroke-linecap="round" stroke-linejoin="round"/>
<path d="M42.5965 248.184L54.9937 240.646L54.8264 240.045L55.9657 239.733L56.149 240.423L66.7297 240.126C66.7297 240.126 67.1997 240.126 66.6579 239.592C66.1162 239.058 57.7345 233.293 57.7345 233.293L50.3009 234.035L40.2461 239.637L42.5965 248.184Z" fill="#D8B65A"/>
<path opacity="0.3" d="M54.8581 240.047L55.0254 240.648L42.6282 248.186L40.2539 239.616L50.3087 234.014L50.5079 233.992L55.1609 239.965L54.8581 240.047Z" fill="black"/>
<path d="M42.5965 248.184L54.9937 240.646L54.8264 240.045L55.9657 239.733L56.149 240.423L66.7297 240.126C66.7297 240.126 67.1997 240.126 66.6579 239.592C66.1162 239.058 57.7345 233.293 57.7345 233.293L50.3009 234.035L40.2461 239.637L42.5965 248.184Z" stroke="#263238" stroke-linecap="round" stroke-linejoin="round"/>
<path d="M54.8586 240.047L50.0781 234.067L50.6358 233.889L55.9979 239.735L54.8586 240.047Z" fill="#D8B65A" stroke="#263238" stroke-linecap="round" stroke-linejoin="round"/>
<path d="M241.16 161.389L263.66 182.609L215.616 195.215L212.438 173.943L241.16 161.389Z" fill="#D8B65A" stroke="#263238" stroke-linecap="round" stroke-linejoin="round"/>
<path d="M261.069 185.675L211.377 199.275L215.385 174.82L240.458 164.402L261.069 185.675Z" fill="white" stroke="#263238" stroke-linecap="round" stroke-linejoin="round"/>
<path d="M241.637 165.723L260.121 187.982L213.496 200.588L218.914 173.832L241.637 165.723Z" fill="white"/>
<path opacity="0.17" d="M241.637 165.723L260.121 187.982L213.496 200.588L218.914 173.832L241.637 165.723Z" fill="black"/>
<path d="M241.637 165.723L260.121 187.982L213.496 200.588L218.914 173.832L241.637 165.723Z" stroke="#263238" stroke-linecap="round" stroke-linejoin="round"/>
<path d="M241.636 165.723L233.159 193.131L200.07 202.458L212.786 177.231L241.636 165.723Z" fill="white" stroke="#263238" stroke-linecap="round" stroke-linejoin="round"/>
<path d="M230.809 190.941L198.899 200.921L197.951 196.751L227.51 186.883L230.809 190.941Z" fill="white" stroke="#263238" stroke-linecap="round" stroke-linejoin="round"/>
<path d="M240.817 161.992L262.01 182.5L261.07 185.676L241.638 165.724L230.81 190.944L227.512 186.885L240.817 161.992Z" fill="white" stroke="#263238" stroke-linecap="round" stroke-linejoin="round"/>
<path d="M241.159 161.389L227.63 187.655L196.422 197.523L212.436 173.943L241.159 161.389Z" fill="#D8B65A"/>
<path opacity="0.3" d="M241.159 161.389L227.63 187.655L196.422 197.523L212.436 173.943L241.159 161.389Z" fill="black"/>
<path d="M241.159 161.389L227.63 187.655L196.422 197.523L212.436 173.943L241.159 161.389Z" stroke="#263238" stroke-linecap="round" stroke-linejoin="round"/>
<path d="M211.145 176.363L236.25 165.693" stroke="#263238" stroke-linecap="round" stroke-linejoin="round"/>
<path d="M136.628 237.641L159.669 211.242L112.136 209.164L108.352 231.342L136.628 237.641Z" fill="#D8B65A" stroke="#263238" stroke-linecap="round" stroke-linejoin="round"/>
<path d="M157.174 208.72L108.023 206.012L111.306 229.807L136.013 234.763L157.174 208.72Z" fill="white" stroke="#263238" stroke-linecap="round" stroke-linejoin="round"/>
<path d="M137.225 233.168L156.299 206.598L110.176 204.209L114.805 230.015L137.225 233.168Z" fill="white"/>
<path opacity="0.17" d="M137.225 233.168L156.299 206.598L110.176 204.209L114.805 230.015L137.225 233.168Z" fill="black"/>
<path d="M137.225 233.168L156.299 206.598L110.176 204.209L114.805 230.015L137.225 233.168Z" stroke="#263238" stroke-linecap="round" stroke-linejoin="round"/>
<path d="M137.224 233.166L129.568 207.375L96.8457 205.305L108.797 227.942L137.224 233.166Z" fill="white" stroke="#263238" stroke-linecap="round" stroke-linejoin="round"/>
<path d="M127.153 210.115L95.6261 207.117L94.5664 211.532L123.751 214.938L127.153 210.115Z" fill="white" stroke="#263238" stroke-linecap="round" stroke-linejoin="round"/>
<path d="M136.293 237.116L158.02 211.718L157.175 208.721L137.225 233.169L127.154 210.116L123.752 214.938L136.293 237.116Z" fill="white" stroke="#263238" stroke-linecap="round" stroke-linejoin="round"/>
<path d="M136.628 237.642L123.888 214.136L93.0625 211.094L108.352 231.342L136.628 237.642Z" fill="#D8B65A"/>
<path opacity="0.3" d="M136.628 237.643L123.888 214.138L93.0625 211.096L108.352 231.344L136.628 237.643Z" fill="black"/>
<path d="M136.628 237.642L123.888 214.136L93.0625 211.094L108.352 231.342L136.628 237.642Z" stroke="#263238" stroke-linecap="round" stroke-linejoin="round"/>
<path d="M106 228.418L131.105 233.337" stroke="#263238" stroke-linecap="round" stroke-linejoin="round"/>
<path d="M155.312 60.1234C155.312 60.1234 144.875 64.8201 140.7 70.511C136.525 76.202 137.744 86.7083 144.174 90.1065C150.603 93.5048 173.047 105.985 188.879 104.204C204.71 102.423 202.272 87.3538 194.273 81.3587C186.273 75.3635 175.485 70.0213 175.485 70.0213C175.485 70.0213 174.968 66.7863 174.266 65.6511C173.565 64.5159 165.574 57.2074 155.312 60.1234Z" fill="#263238" stroke="#263238" stroke-linecap="round" stroke-linejoin="round"/>
<path d="M197.681 84.9072C173.986 78.1553 158.378 90.242 153.486 94.8719C163.286 99.613 177.723 105.437 188.877 104.184C202.119 102.692 202.573 91.8966 197.681 84.9072Z" fill="white" stroke="#263238" stroke-linecap="round" stroke-linejoin="round"/>
<path d="M181.57 83.127C181.57 83.127 195.489 93.5146 190.613 103.858" stroke="#263238" stroke-linecap="round" stroke-linejoin="round"/>
<path d="M135.886 55.5999L130.309 79.8252H134.794L145.853 60.7343C145.853 60.7343 143.694 54.613 135.886 55.5999Z" fill="white" stroke="#263238" stroke-linecap="round" stroke-linejoin="round"/>
<path d="M205.984 43.8452C201.418 38.6514 195.387 33.836 184.336 33.0124C184.336 33.0124 174.919 32.7379 162.107 37.8129C152.092 41.7751 141.392 50.4265 135.887 55.6203C140.811 56.7852 143.743 58.6623 145.862 60.7547C148.045 58.8182 149.949 57.1339 151.351 56.0729C156.068 52.504 162.992 49.4916 162.992 49.4916C162.992 49.4916 155.479 59.0853 154.005 61.556C152.531 64.0268 153.566 68.0038 161.366 69.1019C169.166 70.2 171.087 68.8274 174.178 67.1802C177.269 65.533 181.102 64.0268 182.576 64.0268C185.521 64.2212 188.445 63.4321 190.822 61.8009C194.646 59.3301 196.271 52.3407 197.594 51.7917C198.502 51.4133 206.541 61.1776 212.804 68.5083L213.346 68.2486C216.07 66.9427 218.198 64.2791 219.656 61.9344C214.588 55.0415 208.94 47.2137 205.984 43.8452Z" fill="#D8B65A" stroke="#263238" stroke-linecap="round" stroke-linejoin="round"/>
<path d="M179.588 37.6191C179.588 37.6191 176.465 44.616 182.72 47.2649" stroke="#263238" stroke-linecap="round" stroke-linejoin="round"/>
<path d="M162.992 49.4673L169.78 47.5977" stroke="#263238" stroke-linecap="round" stroke-linejoin="round"/>
<path d="M162.904 61.6749C162.904 61.6749 167.183 65.1919 177.198 61.2148" stroke="#263238" stroke-linecap="round" stroke-linejoin="round"/>
<path d="M201.984 49.1289C199.514 49.4331 197.594 51.7999 197.594 51.7999C200.444 51.2345 203.342 50.9043 206.254 50.8131" stroke="#263238" stroke-linecap="round" stroke-linejoin="round"/>
<path d="M163.215 50.0489C163.215 50.0489 167.812 50.0489 172.25 49.8926" stroke="#263238" stroke-linecap="round" stroke-linejoin="round"/>
<path d="M165.676 59.8359C165.676 59.8359 166.17 62.5961 172.576 62.2845" stroke="#263238" stroke-linecap="round" stroke-linejoin="round"/>
<path d="M182.719 35.3428C182.719 35.3428 181.691 40.2769 182.424 42.8812C183.157 45.4855 185.81 48.5054 187.73 45.352C189.65 42.1986 190.67 38.6743 190.67 36.99C190.67 35.3057 184.041 32.1895 182.719 35.3428Z" fill="white" stroke="#263238" stroke-linecap="round" stroke-linejoin="round"/>
<path d="M197.595 29.1686C197.595 29.1686 201.714 28.345 205.251 24.0935C208.789 19.842 204.223 19.3004 202.749 15.1899C201.276 11.0793 206.462 12.4446 198.957 5.31421C191.452 -1.81614 179.222 0.654625 173.461 2.98442C167.701 5.31421 167.884 13.1346 163.749 13.6837C159.614 14.2327 157.853 10.5303 152.85 10.5303C147.846 10.5303 142.54 15.4644 144.604 19.5749C146.667 23.6855 150.643 21.9121 150.938 21.2221C151.232 20.5321 148.874 21.3631 148.723 19.3004C148.571 17.2377 154.021 18.3433 155.646 21.0886C156.961 23.3145 154.547 26.4753 154.627 28.8125C154.794 33.5018 160.961 36.4993 164.92 37.1448C170.267 38.0129 176.768 37.7087 181.612 35.238C187.564 32.1959 184.799 25.8891 189.181 24.2419C193.563 22.5948 195.81 25.0655 195.81 25.0655L197.595 29.1686Z" fill="#263238" stroke="#263238" stroke-linecap="round" stroke-linejoin="round"/>
<path d="M152.586 13.0776C151.828 12.7707 150.993 12.6643 150.173 12.7704C149.354 12.8764 148.582 13.1906 147.941 13.6786" stroke="white" stroke-linecap="round" stroke-linejoin="round"/>
<path d="M191.881 16.9201C191.881 16.9201 191.881 8.75836 185.73 7.09634C179.579 5.43432 172.552 12.8244 168.999 17.484C165.445 22.1435 160.234 21.0306 156.402 16.1187C156.042 15.6452 155.642 15.1987 155.207 14.7832" stroke="white" stroke-linecap="round" stroke-linejoin="round"/>
<path d="M157.023 32.2269C160.21 34.1338 162.601 34.6828 167.277 33.3176C171.954 31.9524 171.381 24.8591 175.476 21.0453C179.571 17.2316 186.901 18.5894 186.901 18.5894C186.901 18.5894 178.703 14.4937 172.257 18.8565C165.811 23.2193 166.393 30.5871 160.537 31.9524" stroke="white" stroke-linecap="round" stroke-linejoin="round"/>
<path d="M195.984 17.7662C195.984 17.7662 201.562 16.401 201.259 11.7637" stroke="white" stroke-linecap="round" stroke-linejoin="round"/>
<path d="M150.092 70.3398C150.092 70.3398 165.23 72.1206 172.878 77.0176" stroke="white" stroke-linecap="round" stroke-linejoin="round"/>
<path d="M192.789 19.5281C191.846 19.2763 190.845 19.2823 189.906 19.5454C188.966 19.8085 188.128 20.3176 187.49 21.012C184.989 23.4754 185.1 24.7219 183.013 26.2578C182.39 26.7647 181.605 27.0663 180.78 27.1159C179.955 27.1655 179.135 26.9604 178.447 26.5323C177.563 26.1242 176.535 26.3988 176.24 28.3131C175.946 30.2273 178.742 31.741 179.188 31.741C179.632 31.7634 180.074 31.8105 180.511 31.8819C180.511 31.8819 180.511 35.3098 183.013 37.3651C185.514 39.4204 190.526 42.7147 193.912 42.0321C197.298 41.3495 198.621 34.0782 198.621 30.3757C198.497 26.6217 197.703 22.913 196.27 19.402C195.235 17.2354 192.789 19.5281 192.789 19.5281Z" fill="white" stroke="#263238" stroke-linecap="round" stroke-linejoin="round"/>
<path d="M189.994 27.8628C189.994 28.6048 189.707 29.2429 189.341 29.2429C188.974 29.2429 188.68 28.627 188.68 27.8628C188.68 27.0986 188.974 26.4902 189.341 26.4902C189.707 26.4902 189.994 27.106 189.994 27.8628Z" fill="#263238"/>
<path d="M195.244 27.4C195.244 28.142 194.949 28.7802 194.591 28.7802C194.232 28.7802 193.93 28.1643 193.93 27.4C193.93 26.6358 194.224 26.0273 194.591 26.0273C194.957 26.0273 195.244 26.6432 195.244 27.4Z" fill="#263238"/>
<path d="M186.869 25.0796C186.869 25.0796 187.849 23.7069 190.319 24.3376" stroke="#263238" stroke-linecap="round" stroke-linejoin="round"/>
<path d="M193.109 24.3364C193.109 24.3364 194.751 22.6523 196.233 24.3364" stroke="#263238" stroke-linecap="round" stroke-linejoin="round"/>
<path d="M192.949 27.4023C192.949 27.4023 193.109 30.4668 194.097 30.4668C195.085 30.4668 194.75 31.8395 193.435 32.2995" stroke="#263238" stroke-linecap="round" stroke-linejoin="round"/>
<path d="M192.121 35.364C192.121 35.364 189.165 36.5882 188.018 33.8281" stroke="#263238" stroke-linecap="round" stroke-linejoin="round"/>
<path d="M192.813 103.091C192.813 103.091 176.081 89.4241 158.744 84.7719C141.407 80.1198 121.457 82.3086 104.128 77.9384C86.799 73.5682 76.8238 67.5508 76.8238 67.5508L75.9395 82.0415L192.263 111.305L271.841 90.7968L279.769 75.757C279.769 75.757 270.081 80.4017 252.751 84.2303C235.422 88.0589 216.006 88.0515 205.13 91.8578C194.255 95.6641 192.813 103.091 192.813 103.091Z" fill="white" stroke="#263238" stroke-linecap="round" stroke-linejoin="round"/>
<path d="M74.1788 70.8223C74.1788 70.8223 93.5873 81.7664 137.312 85.595C166.114 88.1103 192.813 103.091 192.813 103.091C204.512 96.1249 217.98 92.1626 231.853 91.6049C254.759 90.7888 280.892 82.308 280.892 82.308L275.913 91.8572L190.463 107.439L72.418 78.7243L74.1788 70.8223Z" fill="white" stroke="#263238" stroke-linecap="round" stroke-linejoin="round"/>
<path d="M70.9529 74.1094C87.4717 81.0575 105.152 85.3043 123.219 86.6636C154.634 88.8524 191.929 103.069 191.929 103.069C191.929 103.069 211.601 93.2301 233.36 93.2301C249.521 93.1017 265.601 91.08 281.22 87.2126C280.734 88.7241 280.614 90.3169 280.867 91.8768C281.121 93.4367 281.742 94.925 282.686 96.235L191.635 114.302L70.3633 81.4698L70.9529 74.1094Z" fill="white" stroke="#263238" stroke-linecap="round" stroke-linejoin="round"/>
<path d="M71.5418 80.6013L187.818 107.743V111.571L197.801 111.846V107.438L285.306 94.5874C285.306 94.5874 289.123 93.7639 285.896 97.867C282.669 101.97 226.284 147.638 226.284 147.638L163.74 153.656L68.8887 134.268L69.4544 82.1001C69.4561 81.8635 69.5157 81.6304 69.6286 81.4185C69.7415 81.2066 69.9047 81.0213 70.1059 80.8769C70.307 80.7325 70.5409 80.6326 70.7897 80.5848C71.0385 80.5371 71.2957 80.5427 71.5418 80.6013Z" fill="#D8B65A"/>
<path opacity="0.3" d="M187.818 111.574V107.745L69.4781 80.1289L68.8965 134.271L163.74 153.688L165.437 153.525L190.471 111.648L187.818 111.574Z" fill="black"/>
<path d="M71.5418 80.6013L187.818 107.743V111.571L197.801 111.846V107.438L285.306 94.5874C285.306 94.5874 289.123 93.7639 285.896 97.867C282.669 101.97 226.284 147.638 226.284 147.638L163.74 153.656L68.8887 134.268L69.4544 82.1001C69.4561 81.8635 69.5157 81.6304 69.6286 81.4185C69.7415 81.2066 69.9047 81.0213 70.1059 80.8769C70.307 80.7325 70.5409 80.6326 70.7897 80.5848C71.0385 80.5371 71.2957 80.5427 71.5418 80.6013Z" stroke="#263238" stroke-linecap="round" stroke-linejoin="round"/>
<path d="M187.817 111.572L161.684 153.687L166.679 153.954L197.8 111.847L187.817 111.572Z" fill="#D8B65A" stroke="#263238" stroke-linecap="round" stroke-linejoin="round"/>
<path d="M275.037 96.3081C275.037 96.3081 282.837 97.6659 281.212 102.511L285.897 97.8811C285.897 97.8811 288.04 95.3955 287.06 94.9132C286.08 94.4309 275.037 96.3081 275.037 96.3081Z" fill="#263238"/>
<path d="M82.3219 83.3557C82.3219 83.3557 71.2871 86.1975 69.5741 93.8769L69.4785 82.1018C69.4785 82.1018 69.8131 80.3285 71.558 80.6179C73.3029 80.9072 82.3219 83.3557 82.3219 83.3557Z" fill="#263238"/>
<path d="M69.0001 130.664L74.5454 135.583L68.8965 134.27L69.0001 130.664Z" fill="#263238"/>
<path d="M222.293 147.99L229.814 144.547L225.854 147.745L222.293 147.99Z" fill="#263238"/>
<path d="M219.657 61.9434L240.818 85.5677L235.488 86.3542L212.805 68.5469C212.805 68.5469 218.677 64.9632 219.657 61.9434Z" fill="white" stroke="#263238" stroke-linecap="round" stroke-linejoin="round"/>
<path d="M125.817 77.6563C125.817 77.6563 124.757 76.4617 124.486 77.5302C124.215 78.5986 121.817 82.3084 123.689 82.5681C125.562 82.8278 126.621 78.5912 126.621 78.5912L125.817 77.6563Z" fill="white" stroke="#263238" stroke-linecap="round" stroke-linejoin="round"/>
<path d="M128.35 77.5162C128.35 77.5162 127.283 76.3216 127.02 77.3826C126.757 78.4437 124.351 82.1609 126.223 82.428C128.096 82.6952 129.163 78.4436 129.163 78.4436L128.35 77.5162Z" fill="white" stroke="#263238" stroke-linecap="round" stroke-linejoin="round"/>
<path d="M130.891 77.4278C130.891 77.4278 129.624 76.0997 129.297 77.2795C128.97 78.4592 126.11 82.5845 128.349 82.8813C130.588 83.1781 131.831 78.4295 131.831 78.4295L130.891 77.4278Z" fill="white" stroke="#263238" stroke-linecap="round" stroke-linejoin="round"/>
<path d="M133.105 77.8691L137.376 81.6978H132.316L133.105 77.8691Z" fill="white" stroke="#263238" stroke-linecap="round" stroke-linejoin="round"/>
<path d="M133.105 77.8732C133.105 77.8732 131.839 76.545 131.512 77.7248C131.185 78.9045 128.325 83.0299 130.564 83.3192C132.803 83.6086 134.046 78.8674 134.046 78.8674L133.105 77.8732Z" fill="white" stroke="#263238" stroke-linecap="round" stroke-linejoin="round"/>
<path d="M246.561 81.3071C246.561 81.3071 247.414 79.9715 247.86 80.9806C248.306 81.9897 251.294 85.3137 249.501 85.8479C247.708 86.3821 245.932 82.3458 245.932 82.3458L246.561 81.3071Z" fill="white" stroke="#263238" stroke-linecap="round" stroke-linejoin="round"/>
<path d="M244.059 81.5297C244.059 81.5297 244.912 80.1942 245.358 81.2033C245.804 82.2124 248.8 85.5364 246.999 86.0706C245.198 86.6048 243.43 82.5685 243.43 82.5685L244.059 81.5297Z" fill="white" stroke="#263238" stroke-linecap="round" stroke-linejoin="round"/>
<path d="M241.542 81.821C241.542 81.821 242.57 80.337 243.08 81.4426C243.59 82.5481 247.064 86.2209 244.96 86.8368C242.857 87.4526 240.777 82.9785 240.777 82.9785L241.542 81.821Z" fill="white" stroke="#263238" stroke-linecap="round" stroke-linejoin="round"/>
<path d="M239.429 82.582L235.852 86.9894L240.855 86.2474L239.429 82.582Z" fill="white" stroke="#263238" stroke-linecap="round" stroke-linejoin="round"/>
<path d="M239.431 82.5846C239.431 82.5846 240.451 81.1007 240.969 82.2062C241.486 83.3118 244.952 86.9771 242.849 87.593C240.746 88.2088 238.666 83.7421 238.666 83.7421L239.431 82.5846Z" fill="white" stroke="#263238" stroke-linecap="round" stroke-linejoin="round"/>
<path d="M94.2815 122.214L99.3806 121.473L94.2815 120.731C93.8325 120.667 93.417 120.472 93.0959 120.173C92.7748 119.874 92.5648 119.487 92.4968 119.069L91.7001 114.312L90.9033 119.069C90.8358 119.486 90.627 119.872 90.3074 120.171C89.9879 120.47 89.5742 120.666 89.1266 120.731L84.0195 121.473L89.1266 122.214C89.5727 122.283 89.9845 122.48 90.3034 122.778C90.6224 123.076 90.8323 123.461 90.9033 123.876L91.7001 128.633L92.4968 123.876C92.5684 123.46 92.7794 123.075 93.0999 122.776C93.4204 122.478 93.8339 122.281 94.2815 122.214Z" fill="white"/>
<path d="M56.1899 154.431L61.297 153.689L56.1899 152.947C55.7428 152.88 55.3299 152.683 55.0096 152.384C54.6893 152.086 54.4779 151.702 54.4052 151.285L53.6084 146.529L52.8117 151.285C52.7425 151.703 52.5322 152.089 52.2113 152.388C51.8904 152.687 51.4755 152.883 51.027 152.947L45.9199 153.689L51.027 154.431C51.4755 154.496 51.8904 154.692 52.2113 154.99C52.5322 155.289 52.7425 155.676 52.8117 156.093L53.6084 160.849L54.4052 156.093C54.4779 155.677 54.6893 155.292 55.0096 154.994C55.3299 154.696 55.7428 154.499 56.1899 154.431Z" fill="#D8B65A"/>
<path opacity="0.5" d="M56.1899 154.431L61.297 153.689L56.1899 152.947C55.7428 152.88 55.3299 152.683 55.0096 152.384C54.6893 152.086 54.4779 151.702 54.4052 151.285L53.6084 146.529L52.8117 151.285C52.7425 151.703 52.5322 152.089 52.2113 152.388C51.8904 152.687 51.4755 152.883 51.027 152.947L45.9199 153.689L51.027 154.431C51.4755 154.496 51.8904 154.692 52.2113 154.99C52.5322 155.289 52.7425 155.676 52.8117 156.093L53.6084 160.849L54.4052 156.093C54.4779 155.677 54.6893 155.292 55.0096 154.994C55.3299 154.696 55.7428 154.499 56.1899 154.431Z" fill="white"/>
<path d="M183.348 174.264L188.455 173.522L183.348 172.78C182.901 172.716 182.487 172.521 182.166 172.224C181.845 171.926 181.634 171.542 181.563 171.125L180.767 166.369L179.97 171.125C179.899 171.542 179.688 171.926 179.367 172.224C179.047 172.521 178.633 172.716 178.185 172.78L173.078 173.522L178.185 174.264C178.633 174.328 179.047 174.523 179.367 174.82C179.688 175.117 179.899 175.502 179.97 175.918L180.767 180.674L181.563 175.918C181.634 175.502 181.845 175.117 182.166 174.82C182.487 174.523 182.901 174.328 183.348 174.264Z" fill="#D8B65A"/>
<path opacity="0.5" d="M183.348 174.264L188.455 173.522L183.348 172.78C182.901 172.716 182.487 172.521 182.166 172.224C181.845 171.926 181.634 171.542 181.563 171.125L180.767 166.369L179.97 171.125C179.899 171.542 179.688 171.926 179.367 172.224C179.047 172.521 178.633 172.716 178.185 172.78L173.078 173.522L178.185 174.264C178.633 174.328 179.047 174.523 179.367 174.82C179.688 175.117 179.899 175.502 179.97 175.918L180.767 180.674L181.563 175.918C181.634 175.502 181.845 175.117 182.166 174.82C182.487 174.523 182.901 174.328 183.348 174.264Z" fill="white"/>
<path d="M49.6555 129.129L53.0337 128.632L49.6555 128.135C49.3592 128.093 49.085 127.963 48.873 127.766C48.6609 127.568 48.522 127.313 48.4764 127.037L47.9505 123.898L47.4167 127.037C47.3711 127.313 47.2321 127.568 47.0201 127.766C46.8081 127.963 46.5339 128.093 46.2375 128.135L42.8594 128.632L46.2375 129.129C46.5339 129.172 46.8081 129.301 47.0201 129.499C47.2321 129.696 47.3711 129.951 47.4167 130.227L47.9505 133.366L48.4764 130.227C48.522 129.951 48.6609 129.696 48.873 129.499C49.085 129.301 49.3592 129.172 49.6555 129.129Z" fill="#D8B65A"/>
<path opacity="0.5" d="M49.6555 129.129L53.0337 128.632L49.6555 128.135C49.3592 128.093 49.085 127.963 48.873 127.766C48.6609 127.568 48.522 127.313 48.4764 127.037L47.9505 123.898L47.4167 127.037C47.3711 127.313 47.2321 127.568 47.0201 127.766C46.8081 127.963 46.5339 128.093 46.2375 128.135L42.8594 128.632L46.2375 129.129C46.5339 129.172 46.8081 129.301 47.0201 129.499C47.2321 129.696 47.3711 129.951 47.4167 130.227L47.9505 133.366L48.4764 130.227C48.522 129.951 48.6609 129.696 48.873 129.499C49.085 129.301 49.3592 129.172 49.6555 129.129Z" fill="white"/>
<path d="M268.806 136.077L272.184 135.587L268.806 135.09C268.51 135.046 268.237 134.916 268.025 134.719C267.813 134.522 267.674 134.267 267.627 133.992L267.093 130.846L266.567 133.992C266.52 134.267 266.381 134.522 266.169 134.719C265.957 134.916 265.684 135.046 265.388 135.09L262.01 135.587L265.388 136.077C265.684 136.12 265.957 136.25 266.169 136.447C266.381 136.645 266.52 136.899 266.567 137.175L267.093 140.321L267.627 137.175C267.674 136.899 267.813 136.645 268.025 136.447C268.237 136.25 268.51 136.12 268.806 136.077Z" fill="#D8B65A"/>
<path opacity="0.5" d="M268.806 136.077L272.184 135.587L268.806 135.09C268.51 135.046 268.237 134.916 268.025 134.719C267.813 134.522 267.674 134.267 267.627 133.992L267.093 130.846L266.567 133.992C266.52 134.267 266.381 134.522 266.169 134.719C265.957 134.916 265.684 135.046 265.388 135.09L262.01 135.587L265.388 136.077C265.684 136.12 265.957 136.25 266.169 136.447C266.381 136.645 266.52 136.899 266.567 137.175L267.093 140.321L267.627 137.175C267.674 136.899 267.813 136.645 268.025 136.447C268.237 136.25 268.51 136.12 268.806 136.077Z" fill="white"/>
<path d="M114.423 109.928L117.729 109.445L114.423 108.963C114.133 108.921 113.864 108.794 113.657 108.601C113.449 108.407 113.313 108.158 113.267 107.887L112.741 104.801L112.224 107.887C112.177 108.157 112.04 108.406 111.833 108.599C111.625 108.793 111.358 108.92 111.068 108.963L107.754 109.445L111.068 109.928C111.358 109.971 111.625 110.098 111.833 110.292C112.04 110.485 112.177 110.734 112.224 111.004L112.71 114.12L113.235 111.033C113.276 110.753 113.414 110.494 113.629 110.294C113.843 110.094 114.122 109.966 114.423 109.928Z" fill="white"/>
<path d="M223.965 140.394L227.28 139.905L223.965 139.422C223.676 139.379 223.408 139.252 223.201 139.058C222.993 138.865 222.857 138.616 222.81 138.346L222.292 135.26L221.774 138.346C221.728 138.616 221.591 138.865 221.384 139.058C221.176 139.252 220.909 139.379 220.619 139.422L217.305 139.905L220.619 140.394C220.909 140.437 221.177 140.564 221.385 140.757C221.593 140.95 221.729 141.2 221.774 141.47L222.292 144.549L222.81 141.47C222.856 141.2 222.992 140.95 223.2 140.757C223.407 140.564 223.675 140.437 223.965 140.394Z" fill="white"/>
</svg>
