<svg width="33" height="33" viewBox="0 0 33 33" fill="none" xmlns="http://www.w3.org/2000/svg">
<circle cx="16.4707" cy="16.4092" r="15" fill="#CCA43B" stroke="white" stroke-width="2"/>
<path d="M11.804 13.0757H12.4707C12.8243 13.0757 13.1635 12.9352 13.4135 12.6852C13.6636 12.4351 13.804 12.096 13.804 11.7424C13.804 11.5655 13.8743 11.396 13.9993 11.2709C14.1243 11.1459 14.2939 11.0757 14.4707 11.0757H18.4707C18.6475 11.0757 18.8171 11.1459 18.9421 11.2709C19.0671 11.396 19.1374 11.5655 19.1374 11.7424C19.1374 12.096 19.2778 12.4351 19.5279 12.6852C19.7779 12.9352 20.1171 13.0757 20.4707 13.0757H21.1374C21.491 13.0757 21.8301 13.2162 22.0802 13.4662C22.3302 13.7163 22.4707 14.0554 22.4707 14.409V20.409C22.4707 20.7626 22.3302 21.1018 22.0802 21.3518C21.8301 21.6019 21.491 21.7423 21.1374 21.7423H11.804C11.4504 21.7423 11.1113 21.6019 10.8612 21.3518C10.6112 21.1018 10.4707 20.7626 10.4707 20.409V14.409C10.4707 14.0554 10.6112 13.7163 10.8612 13.4662C11.1113 13.2162 11.4504 13.0757 11.804 13.0757" stroke="white" stroke-width="1.5" stroke-linecap="round" stroke-linejoin="round"/>
<path d="M16.4707 19.0757C17.5753 19.0757 18.4707 18.1803 18.4707 17.0757C18.4707 15.9711 17.5753 15.0757 16.4707 15.0757C15.3661 15.0757 14.4707 15.9711 14.4707 17.0757C14.4707 18.1803 15.3661 19.0757 16.4707 19.0757Z" stroke="white" stroke-width="1.5" stroke-linecap="round" stroke-linejoin="round"/>
</svg>
