<svg width="41" height="41" viewBox="0 0 41 41" fill="none" xmlns="http://www.w3.org/2000/svg">
<circle cx="20.9375" cy="20.0742" r="19.85" fill="white" stroke="#5A5A5A" stroke-width="0.3"/>
<g clip-path="url(#clip0_358_17234)">
<path d="M28.5638 20.2239C28.5638 19.5684 28.5106 19.0901 28.3955 18.594H20.9102V21.5527H25.3039C25.2153 22.2879 24.737 23.3952 23.6739 24.1393L23.659 24.2383L26.0258 26.0718L26.1897 26.0882C27.6956 24.6974 28.5638 22.6511 28.5638 20.2239Z" fill="#4285F4"/>
<path d="M20.9102 28.0193C23.0628 28.0193 24.8699 27.3106 26.1898 26.0881L23.674 24.1393C23.0008 24.6088 22.0972 24.9365 20.9102 24.9365C18.8019 24.9365 17.0126 23.5458 16.3747 21.6235L16.2812 21.6315L13.8203 23.536L13.7881 23.6255C15.0991 26.2298 17.7921 28.0193 20.9102 28.0193Z" fill="#34A853"/>
<path d="M16.3745 21.6236C16.2062 21.1275 16.1088 20.596 16.1088 20.0468C16.1088 19.4975 16.2062 18.9661 16.3657 18.47L16.3612 18.3643L13.8694 16.4292L13.7879 16.468C13.2475 17.5487 12.9375 18.7623 12.9375 20.0468C12.9375 21.3312 13.2475 22.5448 13.7879 23.6255L16.3745 21.6236Z" fill="#FBBC05"/>
<path d="M20.9102 15.1569C22.4073 15.1569 23.4171 15.8036 23.9929 16.344L26.2429 14.1471C24.8611 12.8626 23.0628 12.0742 20.9102 12.0742C17.7921 12.0742 15.0991 13.8636 13.7881 16.4679L16.3659 18.4699C17.0126 16.5477 18.8019 15.1569 20.9102 15.1569Z" fill="#EB4335"/>
</g>
<defs>
<clipPath id="clip0_358_17234">
<rect width="16" height="16" fill="white" transform="translate(12.9375 12.0742)"/>
</clipPath>
</defs>
</svg>
