<svg width="17" height="17" viewBox="0 0 17 17" fill="none" xmlns="http://www.w3.org/2000/svg">
<g clip-path="url(#clip0_347_219)">
<path d="M14.9516 12.6899C14.7098 13.2486 14.4236 13.7627 14.0919 14.2356C13.64 14.88 13.2698 15.3261 12.9846 15.5739C12.5425 15.9805 12.0687 16.1887 11.5614 16.2005C11.1972 16.2005 10.758 16.097 10.2468 15.8867C9.73387 15.6774 9.2625 15.5739 8.8315 15.5739C8.37947 15.5739 7.89468 15.6774 7.37613 15.8867C6.85679 16.097 6.43842 16.2065 6.11854 16.2174C5.63208 16.238 5.14719 16.0238 4.66318 15.5739C4.35426 15.3044 3.96788 14.8424 3.50498 14.1881C3.00835 13.4894 2.60005 12.6791 2.28017 11.7553C1.9376 10.7575 1.76587 9.79123 1.76587 8.8558C1.76587 7.78425 1.99741 6.86007 2.46118 6.0856C2.82567 5.46353 3.31056 4.97281 3.91744 4.61258C4.52432 4.25233 5.18005 4.06875 5.88622 4.05701C6.27262 4.05701 6.77931 4.17654 7.40899 4.41143C8.0369 4.64711 8.44007 4.76664 8.61683 4.76664C8.74898 4.76664 9.19687 4.62688 9.95613 4.34827C10.6742 4.08988 11.2801 3.98289 11.7766 4.02503C13.1218 4.1336 14.1325 4.66389 14.8045 5.61927C13.6015 6.34824 13.0063 7.36924 13.0182 8.67903C13.029 9.69924 13.3991 10.5482 14.1265 11.2223C14.4561 11.5352 14.8243 11.777 15.2339 11.9487C15.1451 12.2063 15.0513 12.4531 14.9516 12.6899ZM11.8664 0.549367C11.8664 1.34901 11.5742 2.09563 10.9919 2.7867C10.2892 3.60824 9.43927 4.08297 8.51755 4.00806C8.5058 3.91213 8.49899 3.81116 8.49899 3.70506C8.49899 2.93741 8.83317 2.11586 9.42664 1.44414C9.72292 1.10404 10.0997 0.821244 10.5567 0.595655C11.0127 0.373432 11.444 0.250537 11.8496 0.229492C11.8615 0.336392 11.8664 0.443298 11.8664 0.549356V0.549367Z" fill="#0E0E0E"/>
</g>
<defs>
<clipPath id="clip0_347_219">
<rect width="16" height="16" fill="white" transform="translate(0.5 0.229492)"/>
</clipPath>
</defs>
</svg>
