<svg width="46" height="41" viewBox="0 0 46 41" fill="none" xmlns="http://www.w3.org/2000/svg">
<rect x="0.345117" y="0.808496" width="44.8" height="39.8" rx="9.9" fill="white" stroke="#8E8E93" stroke-width="0.2"/>
<g clip-path="url(#clip0_856_17518)">
<path d="M30.527 14.7675C30.3929 14.6885 30.2279 14.683 30.0889 14.7528C29.95 14.8228 29.8561 14.9585 29.8395 15.1131C29.823 15.2634 29.7974 15.4137 29.7653 15.5714C28.8679 19.6442 27.0657 21.6251 24.2543 21.6251H20.1293C19.9118 21.6255 19.7245 21.7787 19.681 21.9917L18.306 28.4368L18.0604 30.0777C17.9191 30.8238 18.4095 31.5432 19.1556 31.6844C19.2379 31.7 19.3214 31.708 19.4051 31.7084H22.1643C22.7967 31.7104 23.3481 31.2787 23.498 30.6643L24.6127 26.2084H27.0043C29.8267 26.2084 31.7773 23.958 32.4969 19.8715C32.9719 17.9256 32.1861 15.8897 30.527 14.7675Z" fill="#03A9F4"/>
<path d="M29.6624 11.342C28.7567 10.3147 27.457 9.72078 26.0874 9.70853H18.4974C17.3616 9.70243 16.3945 10.5335 16.2296 11.6573L13.8729 27.379C13.76 28.13 14.2772 28.8303 15.0282 28.9432C15.0963 28.9535 15.1652 28.9585 15.2341 28.9585H18.7541C18.9716 28.9581 19.1589 28.8049 19.2024 28.5918L20.4995 22.5419H24.2578C27.5193 22.5419 29.6744 20.2621 30.6644 15.7585C30.7042 15.579 30.7348 15.3976 30.756 15.2149C30.9858 13.8255 30.585 12.406 29.6624 11.342Z" fill="#283593"/>
</g>
<defs>
<clipPath id="clip0_856_17518">
<rect width="22" height="22" fill="white" transform="translate(12.2451 9.7085)"/>
</clipPath>
</defs>
</svg>
