<svg width="33" height="32" viewBox="0 0 33 32" fill="none" xmlns="http://www.w3.org/2000/svg">
<g clip-path="url(#clip0_222_14376)">
<path d="M0.5 16C0.5 7.16347 7.66347 0 16.5 0C25.3365 0 32.5 7.16347 32.5 16C32.5 24.8365 25.3365 32 16.5 32C7.66347 32 0.5 24.8365 0.5 16Z" fill="#55ACEE"/>
<path d="M16.0208 13.0045L16.0544 13.5582L15.4948 13.4904C13.4579 13.2305 11.6785 12.3492 10.1675 10.8691L9.42893 10.1347L9.23867 10.677C8.83573 11.886 9.09313 13.1627 9.93253 14.0214C10.3802 14.496 10.2795 14.5638 9.50727 14.2813C9.23867 14.1909 9.0036 14.1231 8.98127 14.157C8.90293 14.2361 9.17153 15.2643 9.38413 15.6711C9.67513 16.236 10.2683 16.7896 10.9174 17.1173L11.4658 17.3771L10.8167 17.3885C10.1899 17.3885 10.1675 17.3997 10.2347 17.637C10.4585 18.3714 11.3427 19.1511 12.3275 19.49L13.0215 19.7273L12.4171 20.0888C11.5217 20.6086 10.4697 20.9023 9.41773 20.9249C8.91407 20.9363 8.5 20.9814 8.5 21.0153C8.5 21.1283 9.8654 21.7611 10.66 22.0096C13.0438 22.744 15.8753 22.4277 18.0017 21.1735C19.5126 20.2809 21.0235 18.507 21.7285 16.7896C22.1091 15.8744 22.4896 14.2022 22.4896 13.4C22.4896 12.8803 22.5231 12.8125 23.1499 12.1911C23.5192 11.8295 23.8661 11.434 23.9333 11.3211C24.0452 11.1064 24.0341 11.1064 23.4633 11.2985C22.512 11.6374 22.3777 11.5922 22.8477 11.0838C23.1947 10.7222 23.6087 10.0669 23.6087 9.87481C23.6087 9.84094 23.4409 9.89741 23.2506 9.99908C23.0492 10.1121 22.6015 10.2815 22.2657 10.3833L21.6614 10.5753L21.113 10.2025C20.8109 9.99908 20.3855 9.77314 20.1617 9.70534C19.5909 9.54714 18.718 9.56974 18.2032 9.75054C16.8042 10.259 15.9201 11.5696 16.0208 13.0045Z" fill="white"/>
</g>
<defs>
<clipPath id="clip0_222_14376">
<rect width="32" height="32" fill="white" transform="translate(0.5)"/>
</clipPath>
</defs>
</svg>
