<svg width="19" height="20" viewBox="0 0 19 20" fill="none" xmlns="http://www.w3.org/2000/svg">
<path d="M17.6212 15.8969C17.179 14.8496 16.5374 13.8984 15.7321 13.0961C14.9292 12.2915 13.9781 11.65 12.9313 11.207C12.9219 11.2023 12.9126 11.2 12.9032 11.1953C14.3633 10.1406 15.3126 8.42266 15.3126 6.48438C15.3126 3.27344 12.711 0.671875 9.50006 0.671875C6.28912 0.671875 3.68756 3.27344 3.68756 6.48438C3.68756 8.42266 4.63678 10.1406 6.09694 11.1977C6.08756 11.2023 6.07819 11.2047 6.06881 11.2094C5.01881 11.6523 4.07662 12.2875 3.26803 13.0984C2.46344 13.9013 1.82194 14.8524 1.37897 15.8992C0.943783 16.924 0.709079 18.0228 0.687559 19.1359C0.686933 19.161 0.691321 19.1858 0.700463 19.2091C0.709605 19.2324 0.723317 19.2537 0.740791 19.2716C0.758265 19.2895 0.779146 19.3037 0.802206 19.3134C0.825266 19.3231 0.850036 19.3281 0.875059 19.3281H2.28131C2.38443 19.3281 2.46647 19.2461 2.46881 19.1453C2.51568 17.3359 3.24225 15.6414 4.52662 14.357C5.85553 13.0281 7.62038 12.2969 9.50006 12.2969C11.3798 12.2969 13.1446 13.0281 14.4735 14.357C15.7579 15.6414 16.4844 17.3359 16.5313 19.1453C16.5337 19.2484 16.6157 19.3281 16.7188 19.3281H18.1251C18.1501 19.3281 18.1749 19.3231 18.1979 19.3134C18.221 19.3037 18.2419 19.2895 18.2593 19.2716C18.2768 19.2537 18.2905 19.2324 18.2997 19.2091C18.3088 19.1858 18.3132 19.161 18.3126 19.1359C18.2891 18.0156 18.0571 16.9258 17.6212 15.8969ZM9.50006 10.5156C8.42428 10.5156 7.41178 10.0961 6.65006 9.33438C5.88834 8.57266 5.46881 7.56016 5.46881 6.48438C5.46881 5.40859 5.88834 4.39609 6.65006 3.63437C7.41178 2.87266 8.42428 2.45312 9.50006 2.45312C10.5758 2.45312 11.5883 2.87266 12.3501 3.63437C13.1118 4.39609 13.5313 5.40859 13.5313 6.48438C13.5313 7.56016 13.1118 8.57266 12.3501 9.33438C11.5883 10.0961 10.5758 10.5156 9.50006 10.5156Z" fill="white"/>
</svg>
