<svg width="33" height="32" viewBox="0 0 33 32" fill="none" xmlns="http://www.w3.org/2000/svg">
<g clip-path="url(#clip0_222_14366)">
<path d="M16.5 32C25.3365 32 32.5 24.8365 32.5 16C32.5 7.16347 25.3365 0 16.5 0C7.66347 0 0.5 7.16347 0.5 16C0.5 24.8365 7.66347 32 16.5 32Z" fill="#25D366"/>
<path fill-rule="evenodd" clip-rule="evenodd" d="M17.0277 24.9012H17.0237C15.4314 24.9006 13.8668 24.5012 12.4771 23.7432L7.43359 25.0662L8.78333 20.1361C7.95073 18.6932 7.51266 17.0565 7.51333 15.3797C7.51546 10.134 11.7835 5.86621 17.0275 5.86621C19.5727 5.86731 21.9615 6.85811 23.7577 8.65651C25.554 10.4548 26.5427 12.8451 26.5417 15.3872C26.5396 20.6317 22.2733 24.8991 17.0277 24.9012ZM12.7109 22.0208L12.9996 22.1922C14.2137 22.9126 15.6055 23.2939 17.0245 23.2944H17.0277C21.3861 23.2944 24.9335 19.747 24.9353 15.3866C24.9361 13.2737 24.1144 11.2869 22.6214 9.79218C21.1284 8.29744 19.1429 7.47391 17.0307 7.47318C12.6689 7.47318 9.12146 11.0203 9.11973 15.3802C9.11913 16.8744 9.53719 18.3296 10.3287 19.5886L10.5168 19.8878L9.71793 22.8059L12.7109 22.0208ZM21.4952 17.4356C21.661 17.5157 21.773 17.5698 21.8208 17.6496C21.8802 17.7488 21.8802 18.2247 21.6822 18.7801C21.484 19.3354 20.5343 19.8422 20.0775 19.9104C19.668 19.9716 19.1497 19.9972 18.5802 19.8162C18.2349 19.7067 17.7922 19.5604 17.225 19.3154C14.9964 18.3532 13.4903 16.1931 13.2056 15.7849C13.1857 15.7563 13.1717 15.7363 13.1639 15.7259L13.1621 15.7234C13.0363 15.5555 12.1933 14.4308 12.1933 13.2667C12.1933 12.1717 12.7311 11.5978 12.9787 11.3336C12.9957 11.3154 13.0113 11.2988 13.0253 11.2836C13.2432 11.0456 13.5007 10.986 13.6592 10.986C13.8177 10.986 13.9763 10.9875 14.1149 10.9944C14.1319 10.9953 14.1497 10.9952 14.1681 10.9951C14.3066 10.9943 14.4793 10.9933 14.6497 11.4026C14.7153 11.56 14.8112 11.7936 14.9123 12.0398C15.1169 12.5378 15.3429 13.088 15.3827 13.1677C15.4421 13.2867 15.4817 13.4254 15.4025 13.5842C15.3906 13.608 15.3796 13.6304 15.3691 13.6519C15.3095 13.7734 15.2658 13.8628 15.1647 13.9807C15.1251 14.0271 15.084 14.0771 15.0429 14.1271C14.9611 14.2267 14.8794 14.3263 14.8082 14.3972C14.6891 14.5158 14.5653 14.6444 14.7039 14.8824C14.8426 15.1204 15.3197 15.8988 16.0264 16.5292C16.7861 17.2068 17.4464 17.4932 17.7811 17.6384C17.8464 17.6667 17.8993 17.6897 17.9382 17.7091C18.1758 17.8282 18.3145 17.8082 18.4532 17.6496C18.5919 17.491 19.0475 16.9554 19.2059 16.7175C19.3643 16.4796 19.5229 16.5192 19.7407 16.5985C19.9587 16.6779 21.1275 17.253 21.3652 17.3719C21.4116 17.3952 21.455 17.4162 21.4952 17.4356Z" fill="#FDFDFD"/>
</g>
<defs>
<clipPath id="clip0_222_14366">
<rect width="32" height="32" fill="white" transform="translate(0.5)"/>
</clipPath>
</defs>
</svg>
