<svg width="46" height="41" viewBox="0 0 46 41" fill="none" xmlns="http://www.w3.org/2000/svg">
<rect x="0.345117" y="0.808496" width="44.8" height="39.8" rx="9.9" fill="white" stroke="#8E8E93" stroke-width="0.2"/>
<g clip-path="url(#clip0_856_17499)">
<path d="M32.0901 24.9929C32.0174 24.8805 31.8992 24.8055 31.7665 24.7876C30.0211 24.5596 28.7909 22.9599 29.0189 21.2144C29.18 19.9815 30.0433 18.9548 31.2303 18.5846C31.4713 18.5073 31.6042 18.2493 31.5269 18.0082C31.5149 17.9707 31.4981 17.9349 31.4769 17.9016C30.6759 16.4561 29.2517 15.4619 27.6187 15.2085C26.7957 15.2478 25.9848 15.4215 25.2179 15.7227C24.6672 15.9444 24.0857 16.0801 23.4937 16.1251C22.9017 16.0801 22.3202 15.9444 21.7695 15.7227C21.0027 15.4215 20.1917 15.2478 19.3688 15.2085C17.6574 15.2085 14.3271 17.6349 14.3271 22.0834C14.3271 26.311 17.4108 31.7083 19.8271 31.7083C20.7491 31.7166 21.66 31.5068 22.4854 31.096C22.7963 30.9245 23.1399 30.8208 23.4938 30.7916C23.8476 30.8208 24.1912 30.9245 24.5021 31.096C25.3276 31.5068 26.2384 31.7166 27.1604 31.7083C29.0762 31.7083 31.2386 28.4194 32.1443 25.3715C32.1822 25.2435 32.1624 25.1052 32.0901 24.9929Z" fill="black"/>
<path d="M23.0354 15.2084C25.8186 15.2054 28.0741 12.95 28.0771 10.1668C28.0771 9.91371 27.8719 9.7085 27.6188 9.7085C24.8356 9.71155 22.5802 11.967 22.5771 14.7501C22.5771 15.0032 22.7823 15.2084 23.0354 15.2084Z" fill="black"/>
</g>
<defs>
<clipPath id="clip0_856_17499">
<rect width="22" height="22" fill="white" transform="translate(12.2451 9.7085)"/>
</clipPath>
</defs>
</svg>
