<svg width="33" height="32" viewBox="0 0 33 32" fill="none" xmlns="http://www.w3.org/2000/svg">
<g clip-path="url(#clip0_222_14362)">
<path d="M0.5 16C0.5 7.16347 7.66347 0 16.5 0C25.3365 0 32.5 7.16347 32.5 16C32.5 24.8365 25.3365 32 16.5 32C7.66347 32 0.5 24.8365 0.5 16Z" fill="#3B5998"/>
<path d="M18.1676 25.4077V16.7028H20.5705L20.889 13.7031H18.1676L18.1717 12.2017C18.1717 11.4193 18.2461 11.0001 19.3698 11.0001H20.872V8H18.4687C15.582 8 14.566 9.4552 14.566 11.9024V13.7034H12.7666V16.7031H14.566V25.4077H18.1676Z" fill="white"/>
</g>
<defs>
<clipPath id="clip0_222_14362">
<rect width="32" height="32" fill="white" transform="translate(0.5)"/>
</clipPath>
</defs>
</svg>
