<svg width="33" height="32" viewBox="0 0 33 32" fill="none" xmlns="http://www.w3.org/2000/svg">
<g clip-path="url(#clip0_222_14355)">
<path d="M0.5 16C0.5 7.16347 7.66347 0 16.5 0C25.3365 0 32.5 7.16347 32.5 16C32.5 24.8365 25.3365 32 16.5 32C7.66347 32 0.5 24.8365 0.5 16Z" fill="url(#paint0_linear_222_14355)"/>
<mask id="mask0_222_14355" style="mask-type:alpha" maskUnits="userSpaceOnUse" x="0" y="0" width="33" height="32">
<path fill-rule="evenodd" clip-rule="evenodd" d="M0.5 16C0.5 7.16347 7.66347 0 16.5 0C25.3365 0 32.5 7.16347 32.5 16C32.5 24.8365 25.3365 32 16.5 32C7.66347 32 0.5 24.8365 0.5 16Z" fill="white"/>
</mask>
<g mask="url(#mask0_222_14355)">
<path fill-rule="evenodd" clip-rule="evenodd" d="M16.5019 7.46875C14.1844 7.46875 13.8935 7.47888 12.9833 7.52028C12.0748 7.56188 11.4548 7.70568 10.9122 7.91675C10.3509 8.13468 9.87484 8.42622 9.40051 8.90075C8.92584 9.37502 8.63424 9.85115 8.41557 10.4122C8.20404 10.955 8.06004 11.5752 8.01917 12.4834C7.97844 13.3936 7.96777 13.6846 7.96777 16.0021C7.96777 18.3197 7.97811 18.6096 8.01931 19.5199C8.06111 20.4283 8.20491 21.0484 8.41577 21.591C8.63391 22.1522 8.92544 22.6284 9.39997 23.1027C9.87411 23.5774 10.3502 23.8696 10.9111 24.0876C11.454 24.2985 12.0743 24.4424 12.9826 24.484C13.8928 24.5254 14.1835 24.5356 16.5008 24.5356C18.8186 24.5356 19.1085 24.5254 20.0188 24.484C20.9272 24.4424 21.548 24.2985 22.091 24.0876C22.652 23.8696 23.1274 23.5774 23.6015 23.1027C24.0762 22.6284 24.3678 22.1522 24.5864 21.5911C24.7962 21.0484 24.9402 20.4282 24.9829 19.52C25.0238 18.6098 25.0344 18.3197 25.0344 16.0021C25.0344 13.6846 25.0238 13.3938 24.9829 12.4836C24.9402 11.5751 24.7962 10.955 24.5864 10.4124C24.3678 9.85115 24.0762 9.37502 23.6015 8.90075C23.1268 8.42608 22.6522 8.13448 22.0904 7.91675C21.5464 7.70568 20.926 7.56188 20.0175 7.52028C19.1072 7.47888 18.8175 7.46875 16.4992 7.46875H16.5019ZM16.2173 9.00642H16.2175L16.5019 9.00648C18.7803 9.00648 19.0504 9.01468 19.9501 9.05555C20.7821 9.09362 21.2337 9.23262 21.5345 9.34942C21.9327 9.50408 22.2166 9.68902 22.5151 9.98768C22.8138 10.2864 22.9987 10.5708 23.1537 10.969C23.2705 11.2695 23.4097 11.721 23.4476 12.553C23.4884 13.4526 23.4974 13.7228 23.4974 16.0002C23.4974 18.2776 23.4884 18.5477 23.4476 19.4473C23.4095 20.2794 23.2705 20.7309 23.1537 21.0313C22.999 21.4295 22.8138 21.7132 22.5151 22.0116C22.2164 22.3103 21.9329 22.4952 21.5345 22.6499C21.234 22.7672 20.7821 22.9059 19.9501 22.9439C19.0506 22.9848 18.7803 22.9937 16.5019 22.9937C14.2233 22.9937 13.9532 22.9848 13.0537 22.9439C12.2217 22.9055 11.7701 22.7665 11.4692 22.6497C11.0709 22.495 10.7864 22.3101 10.4878 22.0114C10.1891 21.7127 10.0042 21.429 9.84924 21.0306C9.73244 20.7302 9.59324 20.2786 9.55537 19.4466C9.51444 18.5471 9.50631 18.2768 9.50631 15.9981C9.50631 13.7193 9.51444 13.4505 9.55537 12.5509C9.59337 11.7189 9.73244 11.2673 9.84924 10.9665C10.0039 10.5683 10.1891 10.2839 10.4878 9.98522C10.7864 9.68655 11.0709 9.50162 11.4692 9.34662C11.77 9.22928 12.2217 9.09062 13.0537 9.05235C13.8409 9.01682 14.146 9.00615 15.7364 9.00435V9.00648C15.885 9.00628 16.0448 9.00635 16.2173 9.00642ZM20.033 11.4471C20.033 10.8815 20.4916 10.4234 21.057 10.4234V10.4231C21.6223 10.4231 22.081 10.8817 22.081 11.4471C22.081 12.0124 21.6223 12.4711 21.057 12.4711C20.4916 12.4711 20.033 12.0124 20.033 11.4471ZM16.5017 11.6199C14.0817 11.62 12.1196 13.5821 12.1196 16.0021C12.1196 18.4223 14.0818 20.3836 16.5019 20.3836C18.922 20.3836 20.8834 18.4223 20.8834 16.0021C20.8834 13.582 18.9218 11.6199 16.5017 11.6199ZM19.3464 16.0021C19.3464 14.4311 18.0728 13.1577 16.5019 13.1577C14.9308 13.1577 13.6574 14.4311 13.6574 16.0021C13.6574 17.573 14.9308 18.8466 16.5019 18.8466C18.0728 18.8466 19.3464 17.573 19.3464 16.0021Z" fill="white"/>
</g>
</g>
<defs>
<linearGradient id="paint0_linear_222_14355" x1="25.5" y1="-4.99189e-07" x2="7.5" y2="32" gradientUnits="userSpaceOnUse">
<stop offset="0.429432" stop-color="#F8247D"/>
<stop offset="1" stop-color="#FFC804"/>
</linearGradient>
<clipPath id="clip0_222_14355">
<rect width="32" height="32" fill="white" transform="translate(0.5)"/>
</clipPath>
</defs>
</svg>
