<svg width="203" height="192" viewBox="0 0 203 192" fill="none" xmlns="http://www.w3.org/2000/svg">
<path d="M46.852 0.924805C55.9607 0.924805 64.6964 4.54325 71.1373 10.9841C77.5782 17.425 81.1966 26.1607 81.1966 35.2695V158.8H12.4902V35.2695C12.4902 26.1607 16.1087 17.425 22.5495 10.9841C28.9904 4.54325 37.7261 0.924805 46.8349 0.924805H46.852Z" stroke="#263238" stroke-linecap="round" stroke-linejoin="round"/>
<path d="M20.2676 158.429V36.3787C20.2676 29.3272 23.0685 22.5644 28.0543 17.5778C33.0401 12.5912 39.8024 9.78922 46.854 9.78809V9.78809C53.9062 9.78809 60.6697 12.5896 65.6564 17.5763C70.6431 22.563 73.4446 29.3265 73.4446 36.3787V158.429" stroke="#263238" stroke-linecap="round" stroke-linejoin="round"/>
<path d="M46.8506 0.924805V158.617" stroke="#263238" stroke-linecap="round" stroke-linejoin="round"/>
<path d="M12.8789 31.3008H80.7361" stroke="#263238" stroke-linecap="round" stroke-linejoin="round"/>
<path d="M12.8789 52.7188H80.7361" stroke="#263238" stroke-linecap="round" stroke-linejoin="round"/>
<path d="M12.8789 74.1367H80.7361" stroke="#263238" stroke-linecap="round" stroke-linejoin="round"/>
<path d="M12.8789 95.5596H80.7361" stroke="#263238" stroke-linecap="round" stroke-linejoin="round"/>
<path d="M12.8789 116.979H80.7361" stroke="#263238" stroke-linecap="round" stroke-linejoin="round"/>
<path d="M12.8789 138.397H80.7361" stroke="#263238" stroke-linecap="round" stroke-linejoin="round"/>
<path d="M21.9502 11.6436L28.1039 17.2468" stroke="#263238" stroke-linecap="round" stroke-linejoin="round"/>
<path d="M71.4975 11.6436L65.3438 17.2468" stroke="#263238" stroke-linecap="round" stroke-linejoin="round"/>
<path d="M190.35 6.34473H122.488V98.7783H190.35V6.34473Z" stroke="#263238" stroke-linecap="round" stroke-linejoin="round"/>
<path d="M185.755 10.2373H127.086V94.8827H185.755V10.2373Z" stroke="#263238" stroke-linecap="round" stroke-linejoin="round"/>
<path d="M185.754 15.4142C184.794 15.1752 174.505 12.7811 172.179 18.3587C169.742 24.2094 185.835 39.3248 177.057 51.517C168.279 63.7092 143.408 45.1798 139.503 54.931C135.598 64.6822 136.089 77.8473 129.261 80.2883C128.549 80.538 127.818 80.732 127.076 80.8687V94.9087H185.754V15.4142Z" stroke="#263238" stroke-miterlimit="10"/>
<path d="M141.611 10.2373C146.028 12.6698 149.292 16.1819 145.848 20.7737C138.534 30.5292 127.806 36.3799 134.634 41.7441C141.461 47.1083 159.5 42.7256 157.055 27.6017C155.706 19.2417 155.702 13.8689 156.957 10.2373H141.611Z" stroke="#263238" stroke-miterlimit="10"/>
<path d="M157.39 81.0222C161.983 79.0906 164.14 73.8016 162.208 69.2088C160.277 64.6161 154.988 62.4587 150.395 64.3903C145.802 66.3219 143.645 71.6109 145.577 76.2036C147.508 80.7964 152.797 82.9537 157.39 81.0222Z" stroke="#263238" stroke-miterlimit="10"/>
<path d="M182.42 64.417C182.42 65.1403 182.205 65.8474 181.804 66.4488C181.402 67.0503 180.831 67.519 180.162 67.7958C179.494 68.0726 178.759 68.1451 178.049 68.004C177.34 67.8628 176.688 67.5145 176.177 67.003C175.665 66.4916 175.317 65.8399 175.176 65.1305C175.035 64.4211 175.107 63.6857 175.384 63.0174C175.661 62.3492 176.129 61.778 176.731 61.3761C177.332 60.9743 178.039 60.7598 178.763 60.7598C179.733 60.7598 180.663 61.1451 181.349 61.8309C182.035 62.5168 182.42 63.447 182.42 64.417V64.417Z" stroke="#263238" stroke-miterlimit="10"/>
<path d="M146.814 34.4285C146.814 35.0077 146.642 35.5738 146.32 36.0553C145.998 36.5369 145.541 36.9121 145.006 37.1335C144.471 37.355 143.882 37.4127 143.314 37.2994C142.746 37.1861 142.224 36.9068 141.815 36.497C141.406 36.0872 141.127 35.5651 141.015 34.997C140.902 34.4288 140.961 33.8401 141.183 33.3052C141.405 32.7704 141.781 32.3134 142.263 31.9923C142.745 31.6711 143.312 31.5001 143.891 31.501C144.275 31.501 144.655 31.5767 145.01 31.7239C145.365 31.8711 145.688 32.0868 145.959 32.3587C146.231 32.6306 146.446 32.9533 146.593 33.3085C146.739 33.6636 146.815 34.0442 146.814 34.4285Z" stroke="#263238" stroke-miterlimit="10"/>
<path d="M178.438 165.425C179.355 164.782 180.248 164.111 181.118 163.411C180.106 163.907 179.196 164.59 178.438 165.425Z" fill="#263238"/>
<path d="M186.868 154.405C185.204 153.551 182.23 155.13 181.047 156.304C180.971 156.381 180.22 157.32 179.814 157.845C179.912 157.213 180.015 156.564 180.096 155.941C180.326 154.089 180.501 152.207 180.685 150.33C180.74 149.753 180.8 149.182 180.864 148.623C181.103 148.712 183.945 149.77 185.345 149.672C186.587 149.583 188.149 149.126 188.865 148.021C189.044 147.767 189.166 147.478 189.225 147.173C189.285 146.869 189.279 146.555 189.209 146.253C189.139 145.95 189.006 145.666 188.819 145.419C188.632 145.171 188.395 144.966 188.123 144.816C186.463 143.962 183.484 145.537 182.302 146.715C182.212 146.805 181.133 148.157 180.872 148.516C181.005 147.236 181.15 145.998 181.342 144.765C181.594 143.099 181.955 141.451 182.422 139.832C182.533 139.874 185.494 140.992 186.928 140.89C188.17 140.805 189.732 140.348 190.449 139.243C190.628 138.988 190.751 138.699 190.81 138.394C190.87 138.089 190.865 137.775 190.795 137.472C190.725 137.169 190.591 136.885 190.404 136.637C190.216 136.389 189.979 136.183 189.706 136.033C188.046 135.18 185.072 136.759 183.885 137.932C183.809 138.009 182.985 139.042 182.605 139.541L182.511 139.49C183.025 137.871 183.681 136.3 184.47 134.796C184.897 133.964 185.349 133.191 185.806 132.453C186.339 132.718 188.793 133.9 190.073 133.951C191.353 134.002 192.92 133.72 193.756 132.701C193.961 132.467 194.114 132.194 194.207 131.898C194.299 131.601 194.328 131.289 194.292 130.981C194.255 130.672 194.155 130.375 193.996 130.108C193.838 129.842 193.625 129.611 193.372 129.432C191.814 128.399 188.678 129.641 187.397 130.678C187.325 130.738 186.668 131.39 186.198 131.877C186.407 131.544 186.625 131.198 186.83 130.887C187.611 129.709 188.4 128.681 189.104 127.772C189.51 127.26 189.885 126.807 190.244 126.385C190.901 126.385 193.543 126.291 194.699 125.749C195.856 125.207 197.119 124.23 197.392 122.941C197.466 122.639 197.476 122.326 197.421 122.02C197.366 121.714 197.247 121.424 197.072 121.167C196.898 120.91 196.671 120.693 196.407 120.53C196.143 120.366 195.847 120.26 195.54 120.218C193.683 120.018 191.477 122.565 190.799 124.089C190.739 124.221 190.056 126.385 190.09 126.385H190.133C189.779 126.786 189.407 127.217 189.011 127.695C188.285 128.591 187.47 129.602 186.659 130.767C185.775 132.015 184.961 133.312 184.222 134.651C183.391 136.151 182.696 137.722 182.144 139.345C182.142 139.365 182.142 139.385 182.144 139.405C182.144 138.854 182.144 137.327 182.114 137.207C181.901 135.551 180.514 132.483 178.675 132.142C178.367 132.093 178.053 132.109 177.753 132.19C177.452 132.27 177.172 132.413 176.931 132.609C176.689 132.805 176.491 133.05 176.351 133.327C176.21 133.605 176.13 133.909 176.114 134.22C176.008 135.538 176.968 136.853 177.89 137.681C178.939 138.62 181.85 139.524 182.08 139.597C181.56 141.259 181.149 142.954 180.851 144.671C180.672 145.674 180.523 146.685 180.39 147.701C180.39 147.227 180.39 146.805 180.365 146.745C180.147 145.089 178.76 142.021 176.925 141.679C176.617 141.63 176.303 141.647 176.002 141.728C175.701 141.808 175.421 141.952 175.179 142.148C174.938 142.345 174.74 142.59 174.6 142.868C174.46 143.146 174.379 143.451 174.365 143.762C174.258 145.076 175.218 146.391 176.14 147.223C177.062 148.055 179.554 148.887 180.202 149.096C180.156 149.485 180.104 149.877 180.057 150.266C179.831 152.143 179.631 154.012 179.349 155.843C179.255 156.487 179.14 157.123 179.025 157.751C179.025 157.324 179.025 156.978 179.003 156.923C178.79 155.267 177.403 152.199 175.564 151.857C175.256 151.808 174.942 151.825 174.641 151.906C174.34 151.986 174.06 152.13 173.818 152.326C173.576 152.523 173.379 152.768 173.239 153.046C173.098 153.324 173.018 153.629 173.003 153.94C172.897 155.254 173.857 156.569 174.779 157.401C175.7 158.233 177.949 158.984 178.726 159.236C178.589 159.88 178.453 160.516 178.299 161.143C178.18 161.57 178.09 161.975 177.949 162.389C177.808 162.803 177.685 163.213 177.552 163.618C177.271 164.387 176.985 165.185 176.699 165.931C176.571 166.264 176.443 166.58 176.315 166.9L177.774 165.91C178.005 165.257 178.231 164.6 178.466 163.9C178.589 163.473 178.713 163.081 178.837 162.663C178.961 162.244 179.055 161.809 179.17 161.382C179.409 160.371 179.597 159.334 179.78 158.284C180.454 158.532 182.865 159.368 184.112 159.283C184.802 159.236 185.481 159.077 186.121 158.813C186.762 158.135 187.402 157.443 187.986 156.731C188.08 156.274 188.021 155.8 187.819 155.38C187.617 154.96 187.283 154.617 186.868 154.405Z" fill="#263238"/>
<path d="M176.348 165.424C176.328 163.957 175.931 162.52 175.196 161.251C175.201 161.086 175.191 160.922 175.166 160.76C175.127 160.452 175.024 160.155 174.863 159.89C174.702 159.625 174.487 159.396 174.231 159.219C173.976 159.043 173.686 158.922 173.381 158.864C173.076 158.807 172.762 158.814 172.46 158.886C170.655 159.364 169.512 162.535 169.426 164.199C169.426 164.298 169.486 165.373 169.537 166.047C169.443 165.655 169.362 165.275 169.264 164.869C169.072 164.071 168.863 163.278 168.637 162.428L168.261 161.191C168.146 160.764 167.971 160.337 167.835 159.911C167.476 158.933 167.066 157.965 166.635 156.992C167.331 156.825 169.806 156.194 170.8 155.434C171.795 154.674 172.836 153.433 172.827 152.114C172.836 151.804 172.778 151.495 172.66 151.208C172.541 150.922 172.363 150.663 172.137 150.45C171.912 150.237 171.644 150.073 171.351 149.97C171.058 149.867 170.747 149.827 170.438 149.852C168.581 150.053 166.968 153.01 166.631 154.645C166.61 154.747 166.499 155.946 166.452 156.608C166.187 156.027 165.927 155.443 165.637 154.866C164.809 153.194 163.93 151.525 163.034 149.861C162.76 149.349 162.5 148.837 162.231 148.329C162.483 148.269 165.436 147.582 166.55 146.728C167.532 145.999 168.577 144.748 168.577 143.438C168.586 143.128 168.529 142.819 168.411 142.532C168.292 142.245 168.115 141.987 167.89 141.773C167.665 141.559 167.397 141.395 167.105 141.292C166.812 141.188 166.501 141.147 166.192 141.172C164.331 141.377 162.718 144.334 162.381 145.969C162.381 146.093 162.201 147.817 162.184 148.26C161.6 147.134 161.024 146.003 160.507 144.872C159.797 143.349 159.187 141.781 158.681 140.178C158.8 140.152 161.886 139.448 163.025 138.573C164.015 137.818 165.065 136.576 165.056 135.257C165.065 134.947 165.007 134.638 164.888 134.351C164.77 134.064 164.592 133.806 164.366 133.592C164.141 133.378 163.873 133.214 163.58 133.111C163.287 133.007 162.976 132.967 162.667 132.991C160.81 133.196 159.197 136.154 158.86 137.788C158.86 137.895 158.719 139.209 158.677 139.836H158.57C158.103 138.206 157.784 136.536 157.618 134.848C157.516 133.917 157.465 133.026 157.439 132.155C158.028 132.082 160.716 131.728 161.826 131.054C162.935 130.38 164.071 129.287 164.207 127.977C164.249 127.669 164.226 127.355 164.139 127.057C164.052 126.758 163.902 126.481 163.701 126.244C163.5 126.007 163.251 125.815 162.97 125.681C162.69 125.546 162.384 125.472 162.073 125.464C160.204 125.464 158.28 128.225 157.763 129.812C157.733 129.897 157.55 130.806 157.422 131.472C157.422 131.08 157.401 130.674 157.401 130.299C157.401 128.886 157.494 127.589 157.584 126.458C157.64 125.809 157.704 125.22 157.768 124.67C158.305 124.299 160.469 122.775 161.135 121.683C161.8 120.59 162.312 119.084 161.826 117.842C161.722 117.55 161.557 117.282 161.343 117.058C161.129 116.833 160.871 116.656 160.584 116.537C160.297 116.419 159.988 116.362 159.678 116.371C159.368 116.38 159.063 116.453 158.783 116.587C157.123 117.441 156.688 120.791 156.961 122.434C156.987 122.579 157.614 124.759 157.64 124.738L157.674 124.717C157.601 125.246 157.529 125.809 157.46 126.424C157.349 127.572 157.23 128.865 157.196 130.286C157.145 131.813 157.182 133.342 157.307 134.865C157.44 136.572 157.726 138.265 158.16 139.922C158.16 139.943 158.16 139.96 158.16 139.982C157.866 139.521 157.004 138.253 156.927 138.164C155.834 136.905 152.984 135.108 151.264 135.838C150.982 135.967 150.729 136.154 150.524 136.387C150.319 136.619 150.165 136.893 150.072 137.189C149.98 137.486 149.951 137.798 149.987 138.106C150.023 138.415 150.124 138.712 150.282 138.979C150.918 140.135 152.416 140.686 153.671 140.886C155.062 141.091 157.989 140.242 158.224 140.174C158.704 141.849 159.298 143.49 159.999 145.085C160.401 146.016 160.853 146.942 161.28 147.864C161.011 147.475 160.768 147.125 160.729 147.083C159.637 145.802 156.786 144.023 155.066 144.753C154.784 144.882 154.533 145.069 154.328 145.302C154.123 145.535 153.969 145.809 153.877 146.105C153.785 146.401 153.756 146.714 153.793 147.022C153.829 147.33 153.93 147.627 154.089 147.893C154.725 149.05 156.244 149.622 157.477 149.801C158.711 149.98 161.237 149.31 161.898 149.122C162.078 149.477 162.248 149.831 162.423 150.181C163.277 151.888 164.13 153.552 164.911 155.225C165.189 155.814 165.44 156.403 165.692 156.996C165.458 156.65 165.265 156.356 165.219 156.317C164.126 155.037 161.275 153.258 159.556 153.987C159.273 154.117 159.021 154.304 158.816 154.537C158.61 154.771 158.456 155.045 158.364 155.341C158.271 155.638 158.242 155.951 158.278 156.259C158.315 156.568 158.415 156.865 158.574 157.132C159.21 158.285 160.708 158.839 161.962 159.036C163.217 159.232 165.479 158.609 166.268 158.391C166.512 159.006 166.755 159.616 166.96 160.222C167.092 160.649 167.246 161.029 167.357 161.455C167.468 161.882 167.587 162.309 167.702 162.697C167.894 163.495 168.095 164.319 168.266 165.1C168.385 165.646 168.487 166.167 168.598 166.692C168.325 166.098 167.775 164.955 167.719 164.865C166.832 163.453 164.305 161.246 162.475 161.707C162.176 161.792 161.898 161.938 161.66 162.138C161.421 162.337 161.227 162.584 161.091 162.863C160.954 163.142 160.878 163.447 160.867 163.757C160.856 164.067 160.911 164.377 161.028 164.665C161.485 165.902 162.901 166.696 164.092 167.063C165.402 167.464 168.308 167.097 168.671 167.063C168.846 167.916 169.008 168.77 169.145 169.576C169.247 170.148 169.337 170.695 169.422 171.228L170.472 170.605C170.395 170.204 170.318 169.794 170.233 169.372C170.062 168.493 169.857 167.549 169.64 166.589C170.516 166.24 171.371 165.838 172.2 165.386C172.926 166.175 174.513 167.063 175.375 167.52L176.126 167.016C176.233 166.337 176.344 165.514 176.348 165.424Z" fill="#263238"/>
<path d="M152.552 131.384C153.892 131.969 157.174 131.896 157.174 131.896C157.174 131.896 156.47 129.762 156.41 129.617C155.689 128.111 153.423 125.627 151.562 125.879C151.255 125.928 150.963 126.042 150.703 126.212C150.443 126.382 150.222 126.605 150.055 126.867C149.887 127.128 149.777 127.422 149.731 127.729C149.684 128.036 149.704 128.35 149.787 128.649C150.094 129.933 151.408 130.885 152.552 131.384Z" fill="#263238"/>
<path d="M181.354 125.317C180.902 126.559 181.473 128.078 182.152 129.123C182.946 130.352 185.724 132.111 185.728 132.111C185.732 132.111 186.321 129.93 186.343 129.789C186.573 128.138 186.044 124.809 184.363 123.994C184.08 123.867 183.774 123.801 183.464 123.8C183.154 123.799 182.848 123.862 182.564 123.987C182.281 124.112 182.027 124.295 181.818 124.524C181.61 124.753 181.452 125.023 181.354 125.317Z" fill="#263238"/>
<path d="M132.334 29.7217L111.513 30.2722L111.086 37.5738L131.083 41.0177C131.083 41.0177 131.135 34.1897 132.974 29.8838" fill="white"/>
<path d="M132.334 29.7217L111.513 30.2722L111.086 37.5738L131.083 41.0177C131.083 41.0177 131.135 34.1897 132.974 29.8838" stroke="#263238" stroke-miterlimit="10"/>
<path d="M139.986 29.4016C140.074 29.2449 140.121 29.0685 140.123 28.8886C140.125 28.7088 140.081 28.5315 139.996 28.3731C139.911 28.2147 139.787 28.0804 139.636 27.9827C139.485 27.8849 139.312 27.827 139.132 27.8141C137.694 27.4941 132.454 27.8141 131.656 27.8141C130.858 27.8141 128.357 30.3746 127.956 35.1286C127.555 39.8825 127.913 42.443 128.873 42.921C129.834 43.3989 136.346 42.7631 136.346 42.7631C136.346 42.7631 137.686 36.8782 138.906 34.1727C139.643 32.6917 140.013 31.0555 139.986 29.4016Z" fill="white" stroke="#263238" stroke-miterlimit="10"/>
<path d="M121.399 180.283C122.739 170.771 124.284 158.784 124.216 154.525C124.096 147.069 123.883 145.892 123.883 145.892H67.1722L66.6046 147.279C65.7747 154.843 65.7647 162.475 66.5747 170.041C67.2917 176.323 67.8891 182.443 68.2817 186.842C75.5151 184.606 83.3801 182.105 92.585 180.829L92.8837 159.838L95.2138 158.071L96.2977 180.39C98.9862 180.13 101.786 179.963 104.717 179.963C111.021 179.95 116.513 180.138 121.399 180.283Z" fill="#263238" stroke="#263238" stroke-miterlimit="10"/>
<path d="M80.9219 72.1104H112.121L115.689 149.032C115.689 149.032 111.2 150.602 104.525 150.406C97.851 150.209 96.639 148.05 90.3915 149.817C84.1439 151.584 83.7683 152.958 79.2405 151.976L74.6914 150.995L80.9219 72.1104Z" fill="white" stroke="#263238" stroke-miterlimit="10"/>
<path d="M96.7812 128.672C96.4782 129.581 96.2349 130.332 96.0898 130.865" stroke="#263238" stroke-miterlimit="10" stroke-linecap="round"/>
<path d="M103.533 110.396C103.533 110.396 99.9009 119.835 97.6562 126.16" stroke="#263238" stroke-miterlimit="10" stroke-linecap="round"/>
<path d="M95.1005 119.63L94.2939 121.452" stroke="#263238" stroke-miterlimit="10" stroke-linecap="round"/>
<path d="M100.656 107.1L96.5762 116.3" stroke="#263238" stroke-miterlimit="10" stroke-linecap="round"/>
<path d="M103.525 78.5465L103.913 113.215L103.892 162.04C103.892 162.04 112 162.04 116.912 160.759C121.823 159.479 127.917 152.826 127.917 152.826C127.917 152.826 121.273 114.816 121.034 109.567C120.795 104.318 122.741 76.4853 122.741 76.4853C122.741 76.4853 150.62 43.6513 152.4 41.0225C155.195 36.8874 155.938 33.5459 155.276 31.7963C154.615 30.0466 139.96 28.7749 138.377 29.2358C136.794 29.6967 134.438 40.8561 134.438 40.8561C134.438 40.8561 124.384 48.6485 120.757 50.714C117.129 52.7794 114.919 53.7354 110.34 55.6429C107.355 56.9586 104.592 58.7293 102.15 60.8919L103.525 78.5465Z" fill="#FFF1CB" stroke="#263238" stroke-miterlimit="10"/>
<path d="M117.181 70.7227C117.181 71.7212 117.228 72.6473 117.283 73.4538" stroke="#263238" stroke-miterlimit="10"/>
<path d="M117.764 53.5762C117.764 53.5762 117.201 61.9916 117.171 68.6702" stroke="#263238" stroke-miterlimit="10"/>
<path d="M119.655 52.4629C119.655 52.4629 118.498 59.9395 118.242 63.7546" stroke="#263238" stroke-miterlimit="10"/>
<path d="M134.438 40.856C134.438 40.856 139.806 36.6483 141.099 36.4307" stroke="#263238" stroke-miterlimit="10"/>
<path d="M88.7197 77.5904L87.1749 120.692L84.8278 163.495C80.5276 162.478 76.3072 161.148 72.2003 159.517C65.957 156.957 62.5771 154.268 62.5771 154.268C62.5771 154.268 65.0608 140.433 66.691 132.799C68.3212 125.164 70.4549 109.422 70.4165 106.878C70.3781 104.335 70.041 93.3587 68.9954 87.4739C67.9499 81.589 63.2173 74.1124 63.2045 73.3187C63.1917 72.5249 79.63 66.0042 82.6258 64.4124C84.3029 63.4895 86.1189 62.8452 88.0028 62.5049L88.8051 62.8207L88.7197 77.5904Z" fill="#FFF1CB" stroke="#263238" stroke-miterlimit="10"/>
<path d="M88.4519 60.5752C88.4519 60.5752 85.4647 62.0048 84.863 64.8683C84.2613 67.7318 82.2171 78.7035 82.0848 80.2952C81.9526 81.887 82.5756 81.2512 83.826 79.8173C85.0763 78.3834 86.4675 76.0022 87.1162 76.638L90.1845 79.6594H101.954C102.565 79.4305 103.107 79.0467 103.525 78.5456C104.148 77.7518 105.232 75.84 105.88 76.4759C106.529 77.1117 108.18 81.2512 108.641 80.2952C109.102 79.3393 106.853 67.5739 106.158 63.9124C105.462 60.2509 99.2273 58.0276 88.4519 60.5752Z" fill="white" stroke="#263238" stroke-miterlimit="10"/>
<path d="M88.8256 64.2332C88.8256 64.2332 88.258 78.7042 89.5766 81.5677C90.8953 84.4312 94.4373 87.1154 97.7574 86.0229C101.077 84.9305 103.437 82.9973 103.54 79.5022C103.642 76.0072 102.661 64.0625 102.661 64.0625L88.8256 64.2332Z" fill="white" stroke="#263238" stroke-miterlimit="10"/>
<path d="M103.539 79.5031C103.642 76.0038 102.66 64.0762 102.66 64.0762L88.8249 64.2341C88.8249 64.2341 88.6201 69.4532 88.7438 74.2413C91.0225 74.0214 93.2163 73.2638 95.1451 72.0307C97.1063 70.7373 98.8156 69.0974 100.189 67.1914L103.33 81.0138C103.455 80.5194 103.525 80.0128 103.539 79.5031Z" fill="#263238" stroke="#263238" stroke-miterlimit="10"/>
<path d="M79.4551 40.9404C79.4551 40.9404 78.2516 39.178 77.1165 41.8238C75.9813 44.4696 78.2431 48.1482 79.2886 49.0316C80.3342 49.9149 83.1294 51.0885 83.1294 49.7656C83.1294 48.4427 81.9857 42.7072 81.0724 40.6502C80.1592 38.5933 79.4551 40.9404 79.4551 40.9404Z" fill="white" stroke="#263238" stroke-miterlimit="10"/>
<path d="M112.844 41.3842C112.844 41.3842 113.992 39.6174 115.212 42.2675C116.433 44.9177 114.282 48.5877 113.266 49.471C112.251 50.3544 109.477 51.5322 109.455 50.2051C109.434 48.8779 110.373 43.1466 111.222 41.0897C112.071 39.0328 112.844 41.3842 112.844 41.3842Z" fill="white" stroke="#263238" stroke-miterlimit="10"/>
<path d="M81.4651 47.1204C81.4651 47.1204 82.7454 54.9128 83.7013 58.442C84.6572 61.9712 92.7099 70.0624 95.6502 70.2074C98.5905 70.3525 106.319 65.6498 108.15 60.7977C109.98 55.9455 110.45 48.1489 110.446 47.7093C110.441 47.2698 111.444 36.6779 108.593 32.8542C105.743 29.0306 93.8366 29.6195 88.0029 32.7091C82.1693 35.7988 79.0071 40.5015 81.4651 47.1204Z" fill="white" stroke="#263238" stroke-miterlimit="10"/>
<path d="M91.5703 53.8212C91.5703 54.7558 91.1692 55.5282 90.64 55.5282C90.1108 55.5282 89.6713 54.7729 89.6585 53.8212C89.6457 52.8696 90.0596 52.1143 90.5888 52.1143C91.118 52.1143 91.5532 52.8781 91.5703 53.8212Z" fill="#263238"/>
<path d="M102.893 53.8212C102.893 54.7558 102.492 55.5282 101.967 55.5282C101.442 55.5282 100.998 54.7729 100.981 53.8212C100.964 52.8696 101.382 52.1143 101.911 52.1143C102.44 52.1143 102.88 52.8781 102.893 53.8212Z" fill="#263238"/>
<path d="M92.3638 48.293L86.8203 51.0882" stroke="#263238" stroke-width="3" stroke-miterlimit="10" stroke-linecap="round"/>
<path d="M100.895 48.4434L106.387 51.6781" stroke="#263238" stroke-width="3" stroke-miterlimit="10" stroke-linecap="round"/>
<path d="M98.5516 59.5469C98.5423 59.7969 98.4834 60.0426 98.3782 60.2696C98.2731 60.4966 98.1239 60.7005 97.9392 60.8693C97.7545 61.038 97.5381 61.1684 97.3026 61.2528C97.067 61.3371 96.817 61.3737 96.5672 61.3606C96.0581 61.383 95.5602 61.2062 95.1793 60.8675C94.7985 60.5289 94.5646 60.0551 94.5273 59.5469" stroke="#263238" stroke-miterlimit="10" stroke-linecap="round"/>
<path d="M95.1338 64.9158C95.5538 64.7298 96.008 64.6338 96.4674 64.6338C96.9267 64.6338 97.381 64.7298 97.801 64.9158" stroke="#263238" stroke-miterlimit="10" stroke-linecap="round"/>
<path d="M87.623 55.4189L89.872 55.8457" stroke="#263238" stroke-miterlimit="10" stroke-linecap="round"/>
<path d="M105.441 55.4189L103 56.1658" stroke="#263238" stroke-miterlimit="10" stroke-linecap="round"/>
<path d="M89.2499 18.5867C89.2499 18.5867 81.658 22.1202 79.2683 29.1786C76.8785 36.237 80.0876 43.5898 80.5485 45.5017C81.0094 47.4135 81.3295 48.442 81.3295 48.442C81.3295 48.442 83.4973 45.9412 85.0976 44.7634C86.6979 43.5856 89.9199 43.0009 91.8274 42.5571C93.735 42.1133 100.324 40.5002 102.069 38.7164C103.815 36.9326 104.382 36.2156 104.382 36.2156C104.382 36.2156 105.825 43.7136 107.771 45.9199C108.93 47.2242 109.761 48.7869 110.195 50.4775C110.195 50.4775 111.475 47.5373 112.461 44.8914C113.446 42.2456 114.138 30.0363 111.407 24.8898C108.675 19.7432 97.1319 14.7673 89.2499 18.5867Z" fill="#263238" stroke="#263238" stroke-miterlimit="10"/>
<path d="M104.382 36.2383C104.382 36.2383 98.4501 42.5584 91.5795 45.503C84.7088 48.4475 77.4968 56.2357 78.1326 60.2087C78.7685 64.1817 83.659 65.6497 83.0701 65.6497C82.4812 65.6497 75.2564 64.3268 75.3118 58.442C75.3673 52.5571 81.4869 49.0322 84.7003 47.5599C87.9137 46.0876 101.471 38.1501 104.382 36.2383Z" fill="#263238" stroke="#263238" stroke-miterlimit="10"/>
<path d="M105.774 40.6504C105.774 40.6504 107.797 47.7088 109.013 50.0388C110.23 52.3689 112.372 57.9806 110.819 61.9494C109.265 65.9181 108.096 66.507 108.096 66.507C108.096 66.507 113.332 62.8327 113.238 56.8028C113.144 50.7728 106.722 44.7642 105.774 40.6504Z" fill="#263238" stroke="#263238" stroke-miterlimit="10"/>
<path d="M104.723 20.8408C104.865 16.8249 101.064 13.4305 96.2333 13.2593C91.4024 13.088 87.3708 16.2048 87.2284 20.2207C87.0861 24.2366 90.8869 27.631 95.7178 27.8022C100.549 27.9735 104.58 24.8567 104.723 20.8408Z" fill="#263238" stroke="#263238" stroke-miterlimit="10"/>
<path d="M101.239 14.5913C101.314 12.238 99.0365 10.2564 96.1532 10.1653C93.2698 10.0742 90.8721 11.9081 90.7977 14.2614C90.7234 16.6147 93.0005 18.5963 95.8839 18.6874C98.7672 18.7786 101.165 16.9447 101.239 14.5913Z" fill="#263238" stroke="#263238" stroke-miterlimit="10"/>
<path d="M52.616 128.006L52.9959 152.023C52.9959 152.023 51.0968 162.517 52.0613 163.315C53.0257 164.113 56.2562 166.972 56.9049 167.766C57.5535 168.56 58.8295 168.88 59.7854 169.046C60.7413 169.213 63.4341 168.41 62.9348 166.981C62.4355 165.551 61.8253 167.297 61.343 166.819C60.8646 166.271 60.4294 165.688 60.0415 165.073L60.9419 161.574C60.9419 161.574 61.151 164.911 61.949 165.073C62.747 165.235 62.8964 164.595 62.8751 163.324C62.8537 162.052 62.5337 161.732 62.6531 159.346C62.7726 156.961 61.7997 155.211 61.2961 153.939C60.7925 152.668 59.8067 150.282 59.636 149.484C59.4653 148.686 64.7314 129.764 64.7314 129.764C64.7314 129.764 61.2705 131.983 52.616 128.006Z" fill="white" stroke="#263238" stroke-miterlimit="10"/>
<path d="M63.2055 73.2969C63.2055 73.2969 58.6521 76.9541 57.9437 82.5232C57.2353 88.0922 57.0433 96.0383 56.4501 98.5859C55.8569 101.134 53.4629 121.169 53.4629 121.169C53.4629 121.169 55.7247 123.393 57.645 124.349C59.5654 125.305 63.8499 124.507 64.473 124.349C65.1238 124.133 65.7572 123.867 66.3677 123.555C66.3677 123.555 68.9837 107.966 69.1032 105.265C69.2227 102.563 70.2469 97.1563 70.2469 97.1563C70.2469 97.1563 70.1445 79.6597 63.2055 73.2969Z" fill="#FFF1CB" stroke="#263238" stroke-miterlimit="10"/>
<path d="M66.1914 103.831C65.8415 104.446 65.5385 104.988 65.3379 105.401" stroke="#263238" stroke-miterlimit="10"/>
<path d="M70.2642 97.1523C70.2642 97.1523 68.587 99.8025 67.1318 102.235" stroke="#263238" stroke-miterlimit="10"/>
<path d="M66.4435 100.651L63.1191 106.191" stroke="#263238" stroke-miterlimit="10"/>
<path d="M52.9287 117.985C52.9287 117.985 56.1549 120.849 59.1933 121.805C62.2318 122.761 64.7709 122.598 65.8805 122.283C66.99 121.967 67.4552 121.485 67.6344 122.756C67.8136 124.028 66.7809 128.483 66.7809 129.755C66.7809 131.027 66.3541 131.663 63.7937 132.141C61.2332 132.619 55.8348 131.663 54.226 130.549C52.6171 129.435 51.482 127.847 51.6185 126.414C51.7551 124.98 52.3398 121.805 52.472 120.691C52.6043 119.577 52.3056 118.305 52.9287 117.985Z" fill="white" stroke="#263238" stroke-miterlimit="10"/>
<path d="M86.813 94.6741C86.7747 94.6392 86.7333 94.6077 86.6893 94.5803C85.5627 93.8761 79.7888 95.3697 78.325 95.3697C73.5753 95.3697 71.6123 94.0895 71.4245 95.7965C71.2368 97.5035 70.8314 99.2532 71.2794 100.115C71.7275 100.977 73.2211 100.115 74.5184 100.333C75.8158 100.55 78.4317 102.04 79.5114 102.04C80.5911 102.04 83.3521 100.333 84.0179 100.333C84.6836 100.333 86.1857 100.977 86.6125 100.333C87.2825 99.2788 87.7519 95.5746 86.813 94.6741Z" fill="white" stroke="#263238" stroke-miterlimit="10"/>
<path d="M80.0647 99.8021C80.0676 99.9253 80.0457 100.048 80.0004 100.162C79.9551 100.277 79.8873 100.381 79.8009 100.469C79.7146 100.557 79.6115 100.627 79.4978 100.674C79.384 100.722 79.2619 100.746 79.1387 100.745C78.8877 100.744 78.6471 100.645 78.4684 100.469C78.2898 100.292 78.1872 100.053 78.1828 99.8021C78.1805 99.6793 78.2028 99.5572 78.2484 99.4432C78.2939 99.3291 78.3619 99.2252 78.4481 99.1378C78.5344 99.0503 78.6373 98.9809 78.7508 98.9338C78.8642 98.8867 78.986 98.8627 79.1088 98.8633C79.3591 98.8643 79.599 98.9631 79.7776 99.1384C79.9561 99.3138 80.0592 99.5519 80.0647 99.8021Z" stroke="#263238" stroke-miterlimit="10" stroke-linecap="round"/>
<path d="M120.06 94.6741C120.022 94.6392 119.981 94.6077 119.937 94.5803C118.806 93.8761 113.036 95.3697 111.572 95.3697C106.823 95.3697 104.86 94.0895 104.672 95.7965C104.484 97.5035 104.079 99.2532 104.523 100.115C104.966 100.977 106.469 100.115 107.766 100.333C109.063 100.55 111.679 102.04 112.759 102.04C113.838 102.04 116.6 100.333 117.265 100.333C117.931 100.333 119.433 100.977 119.86 100.333C120.526 99.2788 120.999 95.5746 120.06 94.6741Z" fill="white" stroke="#263238" stroke-miterlimit="10"/>
<path d="M113.485 100.042C113.487 100.165 113.465 100.287 113.419 100.401C113.374 100.515 113.306 100.619 113.219 100.706C113.133 100.794 113.03 100.863 112.917 100.91C112.803 100.957 112.682 100.981 112.559 100.981C112.308 100.98 112.068 100.881 111.89 100.705C111.711 100.53 111.608 100.292 111.603 100.042C111.6 99.9186 111.622 99.796 111.667 99.6814C111.712 99.5669 111.78 99.4625 111.867 99.3746C111.953 99.2867 112.056 99.2169 112.17 99.1695C112.284 99.1221 112.406 99.098 112.529 99.0986C112.78 99.0997 113.02 99.199 113.199 99.3753C113.378 99.5516 113.48 99.7908 113.485 100.042V100.042Z" stroke="#263238" stroke-miterlimit="10" stroke-linecap="round"/>
<path d="M64.6169 25.8936H31.4415C31.1126 25.8936 30.7868 25.9584 30.4829 26.0842C30.179 26.2101 29.9028 26.3946 29.6702 26.6273C29.4376 26.8599 29.2531 27.136 29.1272 27.4399C29.0013 27.7439 28.9365 28.0696 28.9365 28.3986V39.0417C28.9365 39.3704 29.0013 39.6959 29.1273 39.9996C29.2532 40.3033 29.4378 40.5792 29.6705 40.8115C29.9031 41.0437 30.1793 41.2278 30.4832 41.3533C30.7871 41.4787 31.1128 41.543 31.4415 41.5424H58.8302L65.8587 46.7487L63.4433 41.5424H64.6169C64.9457 41.543 65.2713 41.4787 65.5752 41.3533C65.8791 41.2278 66.1553 41.0437 66.3879 40.8115C66.6206 40.5792 66.8052 40.3033 66.9311 39.9996C67.0571 39.6959 67.1219 39.3704 67.1219 39.0417V28.3986C67.1219 28.0696 67.0571 27.7439 66.9312 27.4399C66.8053 27.136 66.6208 26.8599 66.3882 26.6273C66.1556 26.3946 65.8794 26.2101 65.5755 26.0842C65.2716 25.9584 64.9459 25.8936 64.6169 25.8936Z" fill="#263238" stroke="#263238" stroke-miterlimit="10"/>
<path d="M65.0261 25.2617H31.8507C31.522 25.2612 31.1963 25.3254 30.8924 25.4509C30.5885 25.5763 30.3123 25.7604 30.0797 25.9927C29.847 26.2249 29.6624 26.5008 29.5365 26.8045C29.4105 27.1082 29.3457 27.4337 29.3457 27.7625V38.4055C29.3457 38.7343 29.4105 39.0598 29.5365 39.3635C29.6624 39.6672 29.847 39.9431 30.0797 40.1753C30.3123 40.4076 30.5885 40.5917 30.8924 40.7172C31.1963 40.8426 31.522 40.9068 31.8507 40.9063H59.2394L65.8582 46.7485L63.8525 40.9063H65.0261C65.6893 40.9063 66.3254 40.6428 66.7944 40.1738C67.2634 39.7049 67.5268 39.0688 67.5268 38.4055V27.7625C67.5268 27.4341 67.4621 27.1089 67.3365 26.8055C67.2108 26.5021 67.0266 26.2264 66.7944 25.9942C66.5622 25.762 66.2865 25.5778 65.9831 25.4521C65.6797 25.3264 65.3545 25.2617 65.0261 25.2617Z" fill="white" stroke="#263238" stroke-miterlimit="10"/>
<path d="M34.9238 29.334V36.4393H34.1514V29.334H34.9238Z" fill="#263238"/>
<path d="M36.1531 31.2031H35.8288L36.0806 30.3112H35.7861V29.334H36.55V30.2387L36.1531 31.2031Z" fill="#263238"/>
<path d="M39.9754 36.4265H39.2158L38.038 30.7764V36.4393H37.3467V29.334H38.4562L39.6212 35.0055L40.7479 29.334H41.8531V36.4393H41.1021V30.7252L39.9754 36.4265Z" fill="#263238"/>
<path d="M47.3128 31.0398V31.2318H46.5617V30.9971C46.5617 30.357 46.3185 29.9857 45.7509 29.9857C45.1833 29.9857 44.9401 30.357 44.9401 30.9886C44.9401 32.5803 47.3213 32.734 47.3213 34.7311C47.3213 35.8065 46.805 36.5064 45.721 36.5064C44.6371 36.5064 44.125 35.8065 44.125 34.7311V34.3044H44.8675V34.7525C44.8675 35.3883 45.1321 35.7639 45.721 35.7639C46.3099 35.7639 46.5745 35.3883 46.5745 34.7525C46.5745 33.1692 44.2018 33.0156 44.2018 31.0184C44.2018 29.9217 44.7054 29.2432 45.7722 29.2432C46.8391 29.2432 47.3128 29.9644 47.3128 31.0398Z" fill="#263238"/>
<path d="M47.9521 31.0485C47.9521 29.9645 48.4899 29.2646 49.5738 29.2646C50.6577 29.2646 51.221 29.9645 51.221 31.0485V34.7228C51.221 35.7982 50.6833 36.5066 49.5866 36.5066C48.4899 36.5066 47.965 35.7982 47.965 34.7228L47.9521 31.0485ZM48.7331 34.7612C48.7331 35.4098 49.0062 35.7854 49.5866 35.7854C50.167 35.7854 50.4401 35.4098 50.4401 34.7612V31.01C50.4401 30.3699 50.1798 29.9859 49.5866 29.9859C48.9934 29.9859 48.7331 30.3699 48.7331 31.01V34.7612Z" fill="#263238"/>
<path d="M53.5432 29.334C54.657 29.334 55.1222 29.9016 55.1222 30.9599V31.536C55.1222 32.3169 54.849 32.8162 54.2431 32.9997C54.8917 33.1918 55.135 33.7167 55.135 34.4806V35.5858C55.1112 35.8776 55.1595 36.1707 55.2758 36.4393H54.4735C54.3646 36.1687 54.3193 35.8767 54.3412 35.5858V34.472C54.3412 33.6697 53.9657 33.418 53.3085 33.418H52.7494V36.4521H51.96V29.334H53.5432ZM53.3384 32.684C53.9657 32.684 54.3412 32.4791 54.3412 31.711V31.0282C54.3412 30.3923 54.1108 30.0552 53.5219 30.0552H52.7494V32.684H53.3384Z" fill="#263238"/>
<path d="M57.5385 29.334C58.6565 29.334 59.1217 29.9016 59.1217 30.9599V31.536C59.1217 32.3169 58.8486 32.8162 58.2383 32.9997C58.887 33.1918 59.1302 33.7167 59.1302 34.4806V35.5858C59.1078 35.8779 59.1576 36.1711 59.2753 36.4393H58.4773C58.3664 36.1693 58.3211 35.8768 58.345 35.5858V34.472C58.345 33.6697 57.9695 33.418 57.308 33.418H56.7703V36.4521H55.9766V29.334H57.5385ZM57.3379 32.684C57.9652 32.684 58.3407 32.4791 58.3407 31.711V31.0282C58.3407 30.3923 58.106 30.0552 57.5171 30.0552H56.7703V32.684H57.3379Z" fill="#263238"/>
<path d="M61.1096 33.8916L59.6074 29.334H60.431L61.5363 32.8248L62.6501 29.334H63.4012L61.8905 33.8916V36.4521H61.1096V33.8916Z" fill="#263238"/>
</svg>
